<svg width="36" height="26" viewBox="0 0 36 26" fill="none" xmlns="http://www.w3.org/2000/svg">
<path fill-rule="evenodd" clip-rule="evenodd" d="M1.89684 0.634352L14.4499 11.631C16.4921 13.4201 19.509 13.4201 21.5498 11.631L34.1028 0.634352C33.4732 0.232797 32.7263 0 31.9294 0H4.07057C3.27214 0 2.52651 0.232809 1.89684 0.634352ZM0.33906 23.0093C0.121875 22.5124 0 21.964 0 21.389V4.07039C0 3.4954 0.121875 2.94852 0.33906 2.45009L12.0733 12.7296L0.33906 23.0093ZM23.9264 12.7298L35.6606 2.45033C35.8778 2.9472 35.9997 3.49564 35.9997 4.07063V21.3892C35.9997 21.9642 35.8778 22.5126 35.6606 23.0095L23.9264 12.7298ZM34.1026 24.8249L22.0232 14.2422C19.5467 15.7515 16.4545 15.7515 13.9765 14.2422L1.89704 24.8249C2.52671 25.2264 3.27358 25.4592 4.07045 25.4592H31.9309C32.7278 25.4592 33.473 25.2264 34.1026 24.8249Z" fill="white"/>
</svg>
