<svg width="28" height="28" viewBox="0 0 28 28" fill="none" xmlns="http://www.w3.org/2000/svg">
<path d="M28 12.2038V26.9909C28 27.547 27.5521 27.9982 27.0001 27.9982H15.0008C14.4488 27.9982 14.0009 27.547 14.0009 26.9909V24.2371C14.0556 20.8614 14.41 17.6279 15.1542 16.1569C15.6004 15.2721 16.3358 14.7906 17.1806 14.533C18.7766 14.0497 21.5771 14.3802 22.7658 14.3234C22.7658 14.3234 26.3564 14.4673 26.3564 12.4188C26.3564 10.7701 24.7515 10.8997 24.7515 10.8997C22.9827 10.9459 21.6353 10.8251 20.7624 10.4787C19.3004 9.89949 19.251 8.83706 19.2457 8.48173C19.1734 4.37766 13.1667 3.88553 7.87428 4.90355C2.08805 6.01218 7.93777 14.3678 7.93777 25.5216V27.0104C7.92719 27.5576 7.48807 28 6.94136 28H0.999937C0.447943 28 0 27.5487 0 26.9926V1.41777C0 0.861676 0.447943 0.410406 0.999937 0.410406H6.58512C7.13712 0.410406 7.58506 0.861676 7.58506 1.41777C7.58506 2.24391 8.5074 2.70406 9.17403 2.22259C11.1827 0.772843 13.761 0 16.6462 0C23.1097 0 27.9965 3.79492 27.9965 12.2038H28ZM17.2705 9.20305C17.2705 8.01269 16.3129 7.04797 15.1313 7.04797C13.9497 7.04797 12.9921 8.01269 12.9921 9.20305C12.9921 10.3934 13.9497 11.3581 15.1313 11.3581C16.3129 11.3581 17.2705 10.3934 17.2705 9.20305Z" fill="white"/>
</svg>
