<svg width="300" height="254" viewBox="0 0 300 254" fill="none" xmlns="http://www.w3.org/2000/svg">
<circle cx="186.282" cy="140.224" r="112.718" stroke="#9AF3FF" stroke-width="2"/>
<path d="M160.339 2.80169H158.519V9.0737H160.437C162.593 9.0737 163.363 7.8977 163.363 5.8817C163.363 3.5997 162.523 2.80169 160.339 2.80169ZM157.231 10.1377V1.73769H160.507C163.363 1.73769 164.651 3.05369 164.651 5.8817C164.651 8.6817 163.027 10.1377 160.521 10.1377H157.231ZM169.172 4.3277C168.01 4.3277 167.366 4.9997 167.24 6.3857H170.95C170.922 5.04169 170.418 4.3277 169.172 4.3277ZM169.228 10.2917C167.212 10.2917 166.022 9.1017 166.022 6.9177C166.022 4.7337 167.226 3.43169 169.214 3.43169C171.16 3.43169 172.084 4.59369 172.084 6.3997C172.084 6.5957 172.07 6.9037 172.042 7.1837H167.24C167.31 8.5837 167.954 9.3397 169.242 9.3397C170.418 9.3397 170.768 8.7657 170.978 8.0657L172.014 8.3597C171.706 9.5497 170.95 10.2917 169.228 10.2917ZM177.197 10.1377H175.447L172.983 3.5997H174.299L175.125 6.1057C175.461 7.1557 175.783 8.0937 176.049 9.1577H176.595C176.875 8.1217 177.211 7.1277 177.561 6.1057L178.373 3.5997H179.675L177.197 10.1377ZM183.705 4.3277C182.543 4.3277 181.899 4.9997 181.773 6.3857H185.483C185.455 5.04169 184.951 4.3277 183.705 4.3277ZM183.761 10.2917C181.745 10.2917 180.555 9.1017 180.555 6.9177C180.555 4.7337 181.759 3.43169 183.747 3.43169C185.693 3.43169 186.617 4.59369 186.617 6.3997C186.617 6.5957 186.603 6.9037 186.575 7.1837H181.773C181.843 8.5837 182.487 9.3397 183.775 9.3397C184.951 9.3397 185.301 8.7657 185.511 8.0657L186.547 8.3597C186.239 9.5497 185.483 10.2917 183.761 10.2917ZM189.826 0.757695V10.1377H188.608V0.757695H189.826ZM195.014 10.3057C192.928 10.3057 191.78 8.9757 191.78 6.8477C191.78 4.7057 193.026 3.43169 195.014 3.43169C196.988 3.43169 198.234 4.7057 198.234 6.8477C198.234 8.9757 197.072 10.3057 195.014 10.3057ZM195.014 4.4257C193.628 4.4257 192.998 5.30769 192.998 6.8337C192.998 8.3737 193.572 9.3117 195 9.3117C196.428 9.3117 197.016 8.3737 197.016 6.8337C197.016 5.30769 196.386 4.4257 195.014 4.4257ZM203.113 9.2557C204.303 9.2557 204.849 8.5557 204.849 6.8897C204.849 5.20969 204.289 4.5377 203.127 4.5377C202.007 4.5377 201.293 5.33569 201.293 6.4557V7.3657C201.293 8.4437 202.021 9.2557 203.113 9.2557ZM206.039 6.9037C206.039 9.1997 205.143 10.3057 203.743 10.3057C202.637 10.3057 201.825 9.5217 201.447 8.5557H201.293V12.4757H200.075V3.5997H201.293V5.13969H201.447C201.825 4.1877 202.525 3.43169 203.673 3.43169C205.171 3.43169 206.039 4.5797 206.039 6.9037ZM209.1 6.5397V10.1377H207.882V3.5997H209.044V5.2237H209.282C209.73 4.1877 210.542 3.43169 211.732 3.43169C212.782 3.43169 213.412 4.0897 213.524 5.30769H213.804C214.182 4.27169 214.966 3.43169 216.282 3.43169C217.458 3.43169 218.242 4.2297 218.242 5.6857V10.1377H217.038V5.9657C217.038 5.0557 216.618 4.5377 215.764 4.5377C214.49 4.5377 213.678 5.40569 213.678 6.5397V10.1377H212.46V5.9657C212.46 5.0557 212.04 4.5377 211.186 4.5377C209.968 4.5377 209.1 5.40569 209.1 6.5397ZM223.19 4.3277C222.028 4.3277 221.384 4.9997 221.258 6.3857H224.968C224.94 5.04169 224.436 4.3277 223.19 4.3277ZM223.246 10.2917C221.23 10.2917 220.04 9.1017 220.04 6.9177C220.04 4.7337 221.244 3.43169 223.232 3.43169C225.178 3.43169 226.102 4.59369 226.102 6.3997C226.102 6.5957 226.088 6.9037 226.06 7.1837H221.258C221.328 8.5837 221.972 9.3397 223.26 9.3397C224.436 9.3397 224.786 8.7657 224.996 8.0657L226.032 8.3597C225.724 9.5497 224.968 10.2917 223.246 10.2917ZM229.184 6.5397V10.1377H227.966V3.5997H229.128V5.2237H229.352C229.786 4.2297 230.682 3.43169 231.788 3.43169C233.02 3.43169 233.762 4.2297 233.762 5.6857V10.1377H232.544V5.9657C232.544 5.0557 232.18 4.5377 231.27 4.5377C230.052 4.5377 229.184 5.40569 229.184 6.5397ZM236.342 8.1917V4.56569H235.306V3.5997H236.342V1.73769H237.546V3.5997H239.632V4.56569H237.546V8.0797C237.546 8.8217 237.84 9.1997 238.554 9.1997C238.918 9.1997 239.198 9.1437 239.562 9.0457L239.716 10.0817C239.254 10.2217 238.904 10.3057 238.302 10.3057C236.944 10.3057 236.342 9.4097 236.342 8.1917Z" fill="#9AF3FF"/>
<circle cx="113.718" cy="140.224" r="112.718" stroke="#FFAAAA" stroke-width="2"/>
<path d="M91.0246 2.80169H89.2046V9.0737H91.1226C93.2786 9.0737 94.0486 7.8977 94.0486 5.8817C94.0486 3.5997 93.2086 2.80169 91.0246 2.80169ZM87.9166 10.1377V1.73769H91.1926C94.0486 1.73769 95.3366 3.05369 95.3366 5.8817C95.3366 8.6817 93.7126 10.1377 91.2066 10.1377H87.9166ZM99.8578 4.3277C98.6958 4.3277 98.0518 4.9997 97.9258 6.3857H101.636C101.608 5.04169 101.104 4.3277 99.8578 4.3277ZM99.9138 10.2917C97.8978 10.2917 96.7078 9.1017 96.7078 6.9177C96.7078 4.7337 97.9118 3.43169 99.8998 3.43169C101.846 3.43169 102.77 4.59369 102.77 6.3997C102.77 6.5957 102.756 6.9037 102.728 7.1837H97.9258C97.9958 8.5837 98.6398 9.3397 99.9278 9.3397C101.104 9.3397 101.454 8.7657 101.664 8.0657L102.7 8.3597C102.392 9.5497 101.636 10.2917 99.9138 10.2917ZM107.126 10.3057C105.082 10.3057 104.368 9.5357 104.102 8.2897L105.18 8.0657C105.39 8.8637 105.908 9.4097 107.14 9.4097C108.064 9.4097 108.54 9.1017 108.54 8.4297C108.54 7.7577 108.064 7.5057 106.72 7.2817C105.054 6.9737 104.438 6.3857 104.438 5.33569C104.438 4.17369 105.278 3.43169 106.958 3.43169C108.722 3.43169 109.226 4.14569 109.492 5.20969L108.442 5.4197C108.232 4.5797 107.77 4.3137 106.93 4.3137C106.006 4.3137 105.572 4.6497 105.572 5.2517C105.572 5.7697 105.922 6.14769 107.154 6.3577C109.1 6.7077 109.716 7.3097 109.716 8.3737C109.716 9.5357 109.002 10.3057 107.126 10.3057ZM112.953 2.07369H111.553V0.925695H112.953V2.07369ZM112.869 10.1377H111.651V3.5997H112.869V10.1377ZM117.665 4.52369C116.489 4.52369 115.999 5.0697 115.999 5.8677C115.999 6.7077 116.461 7.2117 117.693 7.2117C118.911 7.2117 119.415 6.7077 119.415 5.8677C119.415 5.0557 118.827 4.52369 117.665 4.52369ZM117.791 11.8877C119.639 11.8877 120.101 11.5377 120.101 10.9077C120.101 10.4037 119.709 10.0677 118.883 10.0677H116.741C115.915 10.0677 115.495 10.5437 115.495 10.9777C115.495 11.6077 115.999 11.8877 117.791 11.8877ZM121.109 10.8377C121.109 12.1817 120.283 12.7837 117.665 12.7837C115.243 12.7837 114.515 12.2237 114.515 11.3417C114.515 10.7537 115.089 10.3617 115.915 10.1377V9.9837C115.481 9.8577 115.215 9.5917 115.215 9.1577C115.215 8.8077 115.467 8.5277 115.831 8.2757L116.335 7.9257C115.397 7.6037 114.893 6.8897 114.893 5.9097C114.893 4.39769 115.957 3.5997 117.763 3.5997H120.955V4.4817H120.339C119.975 4.4817 119.429 4.4257 118.771 4.34169L118.743 4.56569C119.667 4.7757 120.493 5.1817 120.493 6.1057C120.493 7.3237 119.513 8.1217 117.665 8.1217C117.259 8.1217 116.909 8.0797 116.587 7.9957L116.391 8.3177C116.265 8.5137 116.181 8.6677 116.181 8.8357C116.181 9.1297 116.419 9.2417 116.923 9.2417H118.967C120.325 9.2417 121.109 9.8157 121.109 10.8377ZM123.968 6.5397V10.1377H122.75V3.5997H123.912V5.2237H124.136C124.57 4.2297 125.466 3.43169 126.572 3.43169C127.804 3.43169 128.546 4.2297 128.546 5.6857V10.1377H127.328V5.9657C127.328 5.0557 126.964 4.5377 126.054 4.5377C124.836 4.5377 123.968 5.40569 123.968 6.5397Z" fill="#FFAAAA"/>
<path d="M96.0992 132.147C93.7192 132.147 92.7812 131.153 92.5292 129.599L93.7332 129.319C93.9712 130.607 94.6712 131.153 96.1132 131.153C97.5412 131.153 98.0592 130.635 98.0592 129.837C98.0592 129.011 97.5552 128.605 95.8192 128.283C93.5372 127.863 92.8232 127.037 92.8232 125.735C92.8232 124.307 93.8032 123.411 96.0012 123.411C98.0172 123.411 98.8432 124.223 99.1372 125.651L97.8632 125.889C97.6112 124.881 97.2192 124.391 95.9452 124.391C94.5872 124.391 94.0552 124.853 94.0552 125.637C94.0552 126.351 94.4612 126.841 96.2392 127.205C98.7732 127.723 99.3332 128.535 99.3332 129.711C99.3332 131.209 98.4512 132.147 96.0992 132.147ZM104.247 131.097C105.437 131.097 105.983 130.397 105.983 128.731C105.983 127.051 105.423 126.379 104.261 126.379C103.141 126.379 102.427 127.177 102.427 128.297V129.207C102.427 130.285 103.155 131.097 104.247 131.097ZM107.173 128.745C107.173 131.041 106.277 132.147 104.877 132.147C103.771 132.147 102.959 131.363 102.581 130.397H102.427V134.317H101.209V125.441H102.427V126.981H102.581C102.959 126.029 103.659 125.273 104.807 125.273C106.305 125.273 107.173 126.421 107.173 128.745ZM110.863 131.181C112.067 131.181 112.879 130.495 112.879 129.543V129.137H110.989C110.093 129.137 109.589 129.487 109.589 130.201C109.589 130.747 109.911 131.181 110.863 131.181ZM112.991 131.979V130.523H112.795C112.403 131.475 111.633 132.119 110.415 132.119C109.225 132.119 108.455 131.615 108.455 130.327C108.455 129.207 109.169 128.395 110.793 128.395H112.879V127.695C112.879 126.771 112.515 126.253 111.437 126.253C110.611 126.253 110.121 126.687 109.897 127.345L108.763 126.953C109.085 125.959 110.051 125.273 111.465 125.273C113.299 125.273 114.083 126.113 114.083 127.681V131.979H112.991ZM120.754 127.751C120.544 126.869 120.208 126.323 119.032 126.323C117.786 126.323 117.128 127.121 117.128 128.717C117.128 130.159 117.716 131.097 119.074 131.097C120.236 131.097 120.6 130.425 120.796 129.669L121.888 130.005C121.594 131.363 120.74 132.147 119.088 132.147C117.03 132.147 115.882 130.915 115.882 128.759C115.882 126.575 117.086 125.273 119.06 125.273C120.824 125.273 121.594 126.057 121.86 127.499L120.754 127.751ZM126.497 126.169C125.335 126.169 124.691 126.841 124.565 128.227H128.275C128.247 126.883 127.743 126.169 126.497 126.169ZM126.553 132.133C124.537 132.133 123.347 130.943 123.347 128.759C123.347 126.575 124.551 125.273 126.539 125.273C128.485 125.273 129.409 126.435 129.409 128.241C129.409 128.437 129.395 128.745 129.367 129.025H124.565C124.635 130.425 125.279 131.181 126.567 131.181C127.743 131.181 128.093 130.607 128.303 129.907L129.339 130.201C129.031 131.391 128.275 132.133 126.553 132.133ZM139.761 125.441L140.433 127.989C140.671 128.941 140.909 129.935 141.091 130.971H141.567C141.749 129.949 142.015 128.997 142.295 127.947L142.953 125.441H144.171L142.169 131.979H140.419L139.705 129.095C139.467 128.199 139.285 127.289 139.131 126.379H138.739C138.585 127.289 138.389 128.199 138.165 129.095L137.465 131.979H135.785L133.783 125.441H135.029L135.687 127.947C135.981 128.983 136.261 129.935 136.457 130.971H136.947C137.115 129.963 137.367 128.927 137.605 127.989L138.277 125.441H139.761ZM146.86 128.381V131.979H145.642V122.599H146.86V127.065H147.042C147.49 126.085 148.302 125.273 149.52 125.273C150.682 125.273 151.438 126.071 151.438 127.527V131.979H150.22V127.807C150.22 126.897 149.8 126.379 148.974 126.379C147.714 126.379 146.86 127.247 146.86 128.381ZM156.356 126.169C155.194 126.169 154.55 126.841 154.424 128.227H158.134C158.106 126.883 157.602 126.169 156.356 126.169ZM156.412 132.133C154.396 132.133 153.206 130.943 153.206 128.759C153.206 126.575 154.41 125.273 156.398 125.273C158.344 125.273 159.268 126.435 159.268 128.241C159.268 128.437 159.254 128.745 159.226 129.025H154.424C154.494 130.425 155.138 131.181 156.426 131.181C157.602 131.181 157.952 130.607 158.162 129.907L159.198 130.201C158.89 131.391 158.134 132.133 156.412 132.133ZM162.35 131.979H161.132V125.441H162.238V127.121L162.448 127.135C162.854 125.819 163.554 125.301 164.534 125.301H164.618V126.645H164.534C162.952 126.645 162.35 127.303 162.35 128.955V131.979ZM169.03 126.169C167.868 126.169 167.224 126.841 167.098 128.227H170.808C170.78 126.883 170.276 126.169 169.03 126.169ZM169.086 132.133C167.07 132.133 165.88 130.943 165.88 128.759C165.88 126.575 167.084 125.273 169.072 125.273C171.018 125.273 171.942 126.435 171.942 128.241C171.942 128.437 171.928 128.745 171.9 129.025H167.098C167.168 130.425 167.812 131.181 169.1 131.181C170.276 131.181 170.626 130.607 170.836 129.907L171.872 130.201C171.564 131.391 170.808 132.133 169.086 132.133ZM178.556 131.979H177.268V123.579H178.556V131.979ZM188.744 127.751C188.534 126.869 188.198 126.323 187.022 126.323C185.776 126.323 185.118 127.121 185.118 128.717C185.118 130.159 185.706 131.097 187.064 131.097C188.226 131.097 188.59 130.425 188.786 129.669L189.878 130.005C189.584 131.363 188.73 132.147 187.078 132.147C185.02 132.147 183.872 130.915 183.872 128.759C183.872 126.575 185.076 125.273 187.05 125.273C188.814 125.273 189.584 126.057 189.85 127.499L188.744 127.751ZM193.633 131.181C194.837 131.181 195.649 130.495 195.649 129.543V129.137H193.759C192.863 129.137 192.359 129.487 192.359 130.201C192.359 130.747 192.681 131.181 193.633 131.181ZM195.761 131.979V130.523H195.565C195.173 131.475 194.403 132.119 193.185 132.119C191.995 132.119 191.225 131.615 191.225 130.327C191.225 129.207 191.939 128.395 193.563 128.395H195.649V127.695C195.649 126.771 195.285 126.253 194.207 126.253C193.381 126.253 192.891 126.687 192.667 127.345L191.533 126.953C191.855 125.959 192.821 125.273 194.235 125.273C196.069 125.273 196.853 126.113 196.853 127.681V131.979H195.761ZM200.317 128.381V131.979H199.099V125.441H200.261V127.065H200.485C200.919 126.071 201.815 125.273 202.921 125.273C204.153 125.273 204.895 126.071 204.895 127.527V131.979H203.677V127.807C203.677 126.897 203.313 126.379 202.403 126.379C201.185 126.379 200.317 127.247 200.317 128.381Z" fill="#FFAAAA"/>
<path d="M102.344 149.849L101.546 147.497H97.7238L96.9258 149.849H95.5958L98.6618 141.449H100.65L103.716 149.849H102.344ZM98.3958 145.481L98.0178 146.601H101.238L100.86 145.481C100.524 144.501 100.188 143.339 99.9638 142.443H99.3338C99.0678 143.367 98.7318 144.487 98.3958 145.481ZM106.283 146.251V149.849H105.065V143.311H106.227V144.935H106.451C106.885 143.941 107.781 143.143 108.887 143.143C110.119 143.143 110.861 143.941 110.861 145.397V149.849H109.643V145.677C109.643 144.767 109.279 144.249 108.369 144.249C107.151 144.249 106.283 145.117 106.283 146.251ZM113.441 147.903V144.277H112.405V143.311H113.441V141.449H114.645V143.311H116.731V144.277H114.645V147.791C114.645 148.533 114.939 148.911 115.653 148.911C116.017 148.911 116.297 148.855 116.661 148.757L116.815 149.793C116.353 149.933 116.003 150.017 115.401 150.017C114.043 150.017 113.441 149.121 113.441 147.903ZM119.892 141.785H118.492V140.637H119.892V141.785ZM119.808 149.849H118.59V143.311H119.808V149.849ZM126.634 145.621C126.424 144.739 126.088 144.193 124.912 144.193C123.666 144.193 123.008 144.991 123.008 146.587C123.008 148.029 123.596 148.967 124.954 148.967C126.116 148.967 126.48 148.295 126.676 147.539L127.768 147.875C127.474 149.233 126.62 150.017 124.968 150.017C122.91 150.017 121.762 148.785 121.762 146.629C121.762 144.445 122.966 143.143 124.94 143.143C126.704 143.143 127.474 143.927 127.74 145.369L126.634 145.621ZM131.103 141.785H129.703V140.637H131.103V141.785ZM131.019 149.849H129.801V143.311H131.019V149.849ZM136.459 148.967C137.649 148.967 138.195 148.267 138.195 146.601C138.195 144.921 137.635 144.249 136.473 144.249C135.353 144.249 134.639 145.047 134.639 146.167V147.077C134.639 148.155 135.367 148.967 136.459 148.967ZM139.385 146.615C139.385 148.911 138.489 150.017 137.089 150.017C135.983 150.017 135.171 149.233 134.793 148.267H134.639V152.187H133.421V143.311H134.639V144.851H134.793C135.171 143.899 135.871 143.143 137.019 143.143C138.517 143.143 139.385 144.291 139.385 146.615ZM143.075 149.051C144.279 149.051 145.091 148.365 145.091 147.413V147.007H143.201C142.305 147.007 141.801 147.357 141.801 148.071C141.801 148.617 142.123 149.051 143.075 149.051ZM145.203 149.849V148.393H145.007C144.615 149.345 143.845 149.989 142.627 149.989C141.437 149.989 140.667 149.485 140.667 148.197C140.667 147.077 141.381 146.265 143.005 146.265H145.091V145.565C145.091 144.641 144.727 144.123 143.649 144.123C142.823 144.123 142.333 144.557 142.109 145.215L140.975 144.823C141.297 143.829 142.263 143.143 143.677 143.143C145.511 143.143 146.295 143.983 146.295 145.551V149.849H145.203ZM148.906 147.903V144.277H147.87V143.311H148.906V141.449H150.11V143.311H152.196V144.277H150.11V147.791C150.11 148.533 150.404 148.911 151.118 148.911C151.482 148.911 151.762 148.855 152.126 148.757L152.28 149.793C151.818 149.933 151.468 150.017 150.866 150.017C149.508 150.017 148.906 149.121 148.906 147.903ZM156.631 144.039C155.469 144.039 154.825 144.711 154.699 146.097H158.409C158.381 144.753 157.877 144.039 156.631 144.039ZM156.687 150.003C154.671 150.003 153.481 148.813 153.481 146.629C153.481 144.445 154.685 143.143 156.673 143.143C158.619 143.143 159.543 144.305 159.543 146.111C159.543 146.307 159.529 146.615 159.501 146.895H154.699C154.769 148.295 155.413 149.051 156.701 149.051C157.877 149.051 158.227 148.477 158.437 147.777L159.473 148.071C159.165 149.261 158.409 150.003 156.687 150.003ZM166.171 141.785H164.771V140.637H166.171V141.785ZM166.087 149.849H164.869V143.311H166.087V149.849ZM170.981 150.017C168.937 150.017 168.223 149.247 167.957 148.001L169.035 147.777C169.245 148.575 169.763 149.121 170.995 149.121C171.919 149.121 172.395 148.813 172.395 148.141C172.395 147.469 171.919 147.217 170.575 146.993C168.909 146.685 168.293 146.097 168.293 145.047C168.293 143.885 169.133 143.143 170.813 143.143C172.577 143.143 173.081 143.857 173.347 144.921L172.297 145.131C172.087 144.291 171.625 144.025 170.785 144.025C169.861 144.025 169.427 144.361 169.427 144.963C169.427 145.481 169.777 145.859 171.009 146.069C172.955 146.419 173.571 147.021 173.571 148.085C173.571 149.247 172.857 150.017 170.981 150.017ZM177.872 150.017C175.828 150.017 175.114 149.247 174.848 148.001L175.926 147.777C176.136 148.575 176.654 149.121 177.886 149.121C178.81 149.121 179.286 148.813 179.286 148.141C179.286 147.469 178.81 147.217 177.466 146.993C175.8 146.685 175.184 146.097 175.184 145.047C175.184 143.885 176.024 143.143 177.704 143.143C179.468 143.143 179.972 143.857 180.238 144.921L179.188 145.131C178.978 144.291 178.516 144.025 177.676 144.025C176.752 144.025 176.318 144.361 176.318 144.963C176.318 145.481 176.668 145.859 177.9 146.069C179.846 146.419 180.462 147.021 180.462 148.085C180.462 149.247 179.748 150.017 177.872 150.017ZM186.834 149.849V148.211H186.624C186.19 149.219 185.294 150.017 184.174 150.017C182.956 150.017 182.214 149.219 182.214 147.763V143.311H183.432V147.483C183.432 148.393 183.782 148.897 184.706 148.897C185.91 148.897 186.792 148.043 186.792 146.895V143.311H188.01V149.849H186.834ZM192.998 144.039C191.836 144.039 191.192 144.711 191.066 146.097H194.776C194.748 144.753 194.244 144.039 192.998 144.039ZM193.054 150.003C191.038 150.003 189.848 148.813 189.848 146.629C189.848 144.445 191.052 143.143 193.04 143.143C194.986 143.143 195.91 144.305 195.91 146.111C195.91 146.307 195.896 146.615 195.868 146.895H191.066C191.136 148.295 191.78 149.051 193.068 149.051C194.244 149.051 194.594 148.477 194.804 147.777L195.84 148.071C195.532 149.261 194.776 150.003 193.054 150.003ZM200.266 150.017C198.222 150.017 197.508 149.247 197.242 148.001L198.32 147.777C198.53 148.575 199.048 149.121 200.28 149.121C201.204 149.121 201.68 148.813 201.68 148.141C201.68 147.469 201.204 147.217 199.86 146.993C198.194 146.685 197.578 146.097 197.578 145.047C197.578 143.885 198.418 143.143 200.098 143.143C201.862 143.143 202.366 143.857 202.632 144.921L201.582 145.131C201.372 144.291 200.91 144.025 200.07 144.025C199.146 144.025 198.712 144.361 198.712 144.963C198.712 145.481 199.062 145.859 200.294 146.069C202.24 146.419 202.856 147.021 202.856 148.085C202.856 149.247 202.142 150.017 200.266 150.017Z" fill="white"/>
</svg>
