<svg xmlns="http://www.w3.org/2000/svg" style="display: none;">
  <symbol id="bfi-logo" viewBox="0 0 35 37">
    <g clip-path="url(#clip0_223_72)">
      <path d="M7.20215 5.01564C8.01011 5.08963 8.92758 4.83363 9.63196 5.34859C10.3719 6.01154 10.2638 7.39071 9.41591 7.92047C8.73373 8.29042 7.92576 8.18387 7.17995 8.18091C7.17255 7.12582 7.20067 6.07073 7.20215 5.01564Z" fill="white"/>
      <path d="M7.17851 9.44751C8.09894 9.50522 9.11111 9.28473 9.93684 9.80858C10.8839 10.365 10.8691 11.9306 9.93684 12.4929C9.09927 13.0094 8.0797 12.8022 7.15039 12.8584C7.15779 11.7219 7.16075 10.584 7.17851 9.44751Z" fill="white"/>
    </g>
    <defs>
      <clipPath id="clip0_223_72">
        <rect width="35" height="35.9589" fill="white" transform="translate(0 0.648682)"/>
      </clipPath>
    </defs>
  </symbol>

  <symbol id="bdo-logo" viewBox="0 0 110 24">
    <g clip-path="url(#clip0_223_42)">
      <path d="M41.8391 8.94198C41.8391 15.8971 47.4672 17.8458 51.1057 17.8458C54.7442 17.8458 60.3723 15.8972 60.3723 8.94332C60.3723 1.9895 54.7436 0.0395508 51.1057 0.0395508C47.4464 0.0395508 41.8391 1.98815 41.8391 8.94198ZM45.4985 8.94198C45.4985 4.02008 48.9011 2.62582 51.0842 2.62582C53.2888 2.62582 56.67 4.01672 56.67 8.94198C56.67 13.8672 53.2673 15.2581 51.0842 15.2581C48.9011 15.2581 45.4985 13.8646 45.4985 8.94198Z" fill="white"/>
      <path d="M0 0.231689V21.9532L3.44567 19.5565V0.231689H0Z" fill="white"/>
      <path d="M4.08736 20.3486L0 23.2164H60.1574V20.3486H4.08736Z" fill="white"/>
      <path d="M69.3816 6.71657V3.16406H70.6657V6.69507C70.6657 7.06395 70.8122 7.41774 71.073 7.67858C71.3339 7.93942 71.6877 8.08596 72.0565 8.08596C72.4254 8.08596 72.7792 7.93942 73.0401 7.67858C73.3009 7.41774 73.4475 7.06395 73.4475 6.69507V3.16406H74.7315V6.71657C74.7315 8.19482 73.854 9.19936 72.0565 9.19936C70.2591 9.19936 69.3816 8.19347 69.3816 6.71657Z" fill="white"/>
      <path d="M79.9963 9.09185L77.1742 5.21816V9.09185H75.9089V3.16406H77.2145L79.9755 6.88791V3.16406H81.238V9.09185H79.9963Z" fill="white"/>
      <path d="M82.3931 9.09185V3.16406H83.6556V9.09185H82.3931Z" fill="white"/>
      <path d="M90.3755 18.9148V12.9871H92.7084C94.5704 12.9871 95.8544 14.1643 95.8544 15.9617C95.8544 17.7591 94.5704 18.9363 92.7084 18.9363H90.3755V18.9148ZM94.5912 15.9583C94.6093 15.7092 94.5736 15.4591 94.4864 15.2249C94.3992 14.9908 94.2627 14.7782 94.086 14.6016C93.9094 14.4249 93.6968 14.2884 93.4627 14.2012C93.2286 14.114 92.9784 14.0783 92.7293 14.0964H91.6595V17.7988H92.7273C92.9733 17.8123 93.2194 17.7742 93.4499 17.687C93.6803 17.5998 93.89 17.4654 94.0655 17.2925C94.241 17.1195 94.3784 16.9118 94.4689 16.6826C94.5595 16.4535 94.6011 16.2079 94.5912 15.9617V15.9583Z" fill="white"/>
      <path d="M108.737 18.9148V14.7636L107.068 18.9155H106.512L104.843 14.7636V18.9155H103.58V12.9871H105.356L106.789 16.5826L108.223 12.9871H110V18.9148H108.737Z" fill="white"/>
    </g>
    <defs>
      <clipPath id="clip0_223_42">
        <rect width="110" height="23.177" fill="white" transform="translate(0 0.0395508)"/>
      </clipPath>
    </defs>
  </symbol>

  <symbol id="nao-logo" viewBox="0 0 100 40">
    <g clip-path="url(#clip0_223_67)">
      <path d="M21.0106 16.5455C21.7695 16.5455 22.3731 16.2811 22.8235 15.756C23.2738 15.2424 23.498 14.5372 23.498 13.6365C23.498 12.7378 23.2738 12.0268 22.8235 11.5075C22.3674 10.9882 21.7618 10.7275 21.0106 10.7275C20.2594 10.7275 19.6539 10.9882 19.1978 11.5075C18.7417 12.0421 18.5117 12.7512 18.5117 13.6365C18.5117 14.5295 18.7398 15.2348 19.1978 15.756C19.6481 16.283 20.2518 16.5455 21.0106 16.5455ZM14.8592 14.0485C14.4874 13.121 14.0965 12.0958 13.6883 10.9709C13.2035 12.2644 12.8164 13.2897 12.5289 14.0485L12.3699 14.4606H15.0144L14.8592 14.0485Z" fill="white"/>
    </g>
    <defs>
      <clipPath id="clip0_223_67">
        <rect width="100" height="39.2561" fill="white"/>
      </clipPath>
    </defs>
  </symbol>

  <symbol id="ons-logo" viewBox="0 0 130 29">
    <path d="M1.01563 17.1986C1.39157 16.4173 1.79375 15.6488 2.2215 14.8946C1.73264 13.6898 1.32968 12.452 1.01562 11.1903L1.01563 17.1986ZM3.36298 2.01636C3.36298 2.01636 1.01563 2.01636 1.01563 4.92333V6.47399C1.21607 9.09027 1.78888 11.6646 2.71672 14.119C4.02766 12.023 5.6457 10.1356 7.5168 8.51987C11.3094 5.26811 16.411 3.02847 23.3477 2.03802L3.36298 2.01636Z" fill="white"/>
  </symbol>
</svg>