<svg width="110" height="24" viewBox="0 0 110 24" fill="none" xmlns="http://www.w3.org/2000/svg">
<g clip-path="url(#clip0_223_42)">
<path d="M11.4497 9.64813H13.5468C16.9925 9.64813 18.7684 10.3973 18.7684 12.4299C18.7684 14.2273 17.3574 14.9766 15.1514 14.9766H11.7918L7.93956 17.673H15.1292C19.4296 17.673 22.3189 16.1323 22.3189 12.5368C22.3189 9.41228 19.7508 8.19272 17.4608 8.19272C18.4205 8.13782 19.3199 7.70743 19.9647 6.99461C20.6095 6.28179 20.9478 5.34383 20.9065 4.38354C20.9065 1.98676 18.7019 0.253174 16.1983 0.253174H7.27637L7.91806 1.68708V16.432L11.4276 13.9707V9.64813H11.4497ZM11.4497 2.92881H15.1306C16.1385 2.92881 17.4205 3.16398 17.4205 4.89757C17.4205 6.60965 15.5801 7.31653 14.2315 7.31653H11.4497V2.92881Z" fill="white"/>
<path d="M28.0996 2.92815H30.4964C31.4808 2.92815 36.5317 3.18483 36.5317 8.94195C36.5317 15.5336 30.4964 14.9557 30.4964 14.9557H28.4208L24.5686 17.6522H31.4808C35.7812 17.6522 40.1911 14.9987 40.1911 8.94195C40.1911 3.57052 36.3389 0.231689 31.4808 0.231689H23.9263L24.568 1.66559V16.4105L28.099 13.9492L28.0996 2.92815Z" fill="white"/>
<path d="M41.8391 8.94198C41.8391 15.8971 47.4672 17.8458 51.1057 17.8458C54.7442 17.8458 60.3723 15.8972 60.3723 8.94332C60.3723 1.9895 54.7436 0.0395508 51.1057 0.0395508C47.4464 0.0395508 41.8391 1.98815 41.8391 8.94198ZM45.4985 8.94198C45.4985 4.02008 48.9011 2.62582 51.0842 2.62582C53.2888 2.62582 56.67 4.01672 56.67 8.94198C56.67 13.8672 53.2673 15.2581 51.0842 15.2581C48.9011 15.2581 45.4985 13.8646 45.4985 8.94198Z" fill="white"/>
<path d="M0 0.231689V21.9532L3.44567 19.5565V0.231689H0Z" fill="white"/>
<path d="M4.08736 20.3486L0 23.2164H60.1574V20.3486H4.08736Z" fill="white"/>
<path d="M69.3816 6.71657V3.16406H70.6657V6.69507C70.6657 7.06395 70.8122 7.41774 71.073 7.67858C71.3339 7.93942 71.6877 8.08596 72.0565 8.08596C72.4254 8.08596 72.7792 7.93942 73.0401 7.67858C73.3009 7.41774 73.4475 7.06395 73.4475 6.69507V3.16406H74.7315V6.71657C74.7315 8.19482 73.854 9.19936 72.0565 9.19936C70.2591 9.19936 69.3816 8.19347 69.3816 6.71657Z" fill="white"/>
<path d="M79.9963 9.09185L77.1742 5.21816V9.09185H75.9089V3.16406H77.2145L79.9755 6.88791V3.16406H81.238V9.09185H79.9963Z" fill="white"/>
<path d="M82.3931 9.09185V3.16406H83.6556V9.09185H82.3931Z" fill="white"/>
<path d="M86.2028 9.09185V4.27678H84.4692V3.16406H89.199V4.27678H87.4654V9.09185H86.2028Z" fill="white"/>
<path d="M90.012 9.09185V3.16406H94.2062V4.27678H91.2745V5.53934H94.1423V6.65206H91.2745V8.00197H94.2062V9.11469H90.012V9.09185Z" fill="white"/>
<path d="M95.2129 9.09185V3.16406H97.5458C99.4078 3.16406 100.692 4.34129 100.692 6.13871C100.692 7.93612 99.4078 9.11335 97.5458 9.11335H95.2129V9.09185ZM99.4078 6.1172C99.4259 5.86805 99.3901 5.61791 99.303 5.38379C99.2158 5.14967 99.0793 4.93707 98.9026 4.76042C98.726 4.58378 98.5134 4.44723 98.2792 4.36007C98.0451 4.2729 97.795 4.23716 97.5458 4.25528H96.4761V7.95763H97.5458C97.7921 7.97262 98.0388 7.93558 98.2698 7.8489C98.5009 7.76222 98.7111 7.62786 98.8867 7.45455C99.0623 7.28125 99.1995 7.07289 99.2893 6.84305C99.3791 6.61321 99.4194 6.36704 99.4078 6.12056V6.1172Z" fill="white"/>
<path d="M72.9126 18.9148L71.1152 16.5396L70.6448 17.0959V18.9148H69.3816V12.9871H70.6442V15.6405L72.7413 12.9871H74.3035L71.9517 15.7689L74.4769 18.9148H72.9126Z" fill="white"/>
<path d="M75.032 18.9148V12.9871H76.2945V18.9148H75.032Z" fill="white"/>
<path d="M81.58 18.9148L78.7579 15.0412V18.9148H77.4927V12.9871H78.7982L81.5592 16.7109V12.9871H82.8218V18.9148H81.58Z" fill="white"/>
<path d="M83.6771 15.9616C83.6687 15.5473 83.7456 15.1357 83.9029 14.7524C84.0603 14.369 84.2947 14.0221 84.5918 13.7331C84.8888 13.4441 85.242 13.2193 85.6296 13.0726C86.0171 12.9259 86.4307 12.8604 86.8446 12.8802C87.3356 12.864 87.822 12.9784 88.2544 13.2115C88.6868 13.4446 89.0496 13.7882 89.3059 14.2072L88.257 14.7851C88.1078 14.5463 87.8996 14.35 87.6524 14.215C87.4053 14.08 87.1275 14.0109 86.846 14.0144C86.3292 14.0144 85.8335 14.2197 85.4681 14.5851C85.1027 14.9505 84.8974 15.4462 84.8974 15.963C84.8974 16.4798 85.1027 16.9754 85.4681 17.3409C85.8335 17.7063 86.3292 17.9116 86.846 17.9116C87.3058 17.9101 87.7513 17.7515 88.1085 17.4621V16.7538H86.5463V15.6411H89.3684V17.9096C89.0546 18.2686 88.6658 18.5543 88.2295 18.7466C87.7932 18.9388 87.32 19.033 86.8433 19.0223C86.4306 19.0444 86.0179 18.9811 85.6308 18.8365C85.2436 18.6919 84.8905 18.469 84.5934 18.1818C84.2963 17.8946 84.0616 17.5492 83.9039 17.1672C83.7463 16.7852 83.6691 16.3748 83.6771 15.9616Z" fill="white"/>
<path d="M90.3755 18.9148V12.9871H92.7084C94.5704 12.9871 95.8544 14.1643 95.8544 15.9617C95.8544 17.7591 94.5704 18.9363 92.7084 18.9363H90.3755V18.9148ZM94.5912 15.9583C94.6093 15.7092 94.5736 15.4591 94.4864 15.2249C94.3992 14.9908 94.2627 14.7782 94.086 14.6016C93.9094 14.4249 93.6968 14.2884 93.4627 14.2012C93.2286 14.114 92.9784 14.0783 92.7293 14.0964H91.6595V17.7988H92.7273C92.9733 17.8123 93.2194 17.7742 93.4499 17.687C93.6803 17.5998 93.89 17.4654 94.0655 17.2925C94.241 17.1195 94.3784 16.9118 94.4689 16.6826C94.5595 16.4535 94.6011 16.2079 94.5912 15.9617V15.9583Z" fill="white"/>
<path d="M96.4963 15.9616C96.492 15.347 96.6704 14.745 97.0087 14.2319C97.3471 13.7188 97.8302 13.3177 98.3968 13.0796C98.9634 12.8414 99.588 12.7769 100.191 12.8942C100.795 13.0115 101.35 13.3053 101.786 13.7384C102.222 14.1715 102.519 14.7243 102.641 15.3268C102.762 15.9293 102.702 16.5543 102.468 17.1226C102.234 17.6908 101.836 18.1767 101.325 18.5186C100.815 18.8606 100.214 19.0431 99.5992 19.0431C99.1892 19.0596 98.7801 18.9914 98.3976 18.8426C98.0151 18.6939 97.6674 18.4678 97.3762 18.1787C97.085 17.8895 96.8565 17.5433 96.7051 17.1619C96.5537 16.7804 96.4826 16.3718 96.4963 15.9616ZM101.397 15.9616C101.369 15.6123 101.24 15.2787 101.025 15.0017C100.81 14.7247 100.519 14.5163 100.188 14.4019C99.8566 14.2876 99.4991 14.2723 99.1592 14.3579C98.8193 14.4436 98.5118 14.6264 98.2741 14.884C98.0364 15.1416 97.879 15.463 97.8211 15.8087C97.7631 16.1543 97.8072 16.5094 97.9478 16.8305C98.0885 17.1515 98.3197 17.4247 98.6131 17.6164C98.9065 17.8082 99.2494 17.9103 99.5999 17.9102C99.8493 17.9114 100.096 17.8606 100.325 17.7611C100.554 17.6616 100.759 17.5155 100.928 17.3322C101.097 17.1489 101.226 16.9323 101.307 16.6963C101.388 16.4604 101.419 16.2101 101.397 15.9616Z" fill="white"/>
<path d="M108.737 18.9148V14.7636L107.068 18.9155H106.512L104.843 14.7636V18.9155H103.58V12.9871H105.356L106.789 16.5826L108.223 12.9871H110V18.9148H108.737Z" fill="white"/>
</g>
<defs>
<clipPath id="clip0_223_42">
<rect width="110" height="23.177" fill="white" transform="translate(0 0.0395508)"/>
</clipPath>
</defs>
</svg>
