<svg xmlns="http://www.w3.org/2000/svg" style="display: none;">




<symbol id="bfi-logo" width="35" height="37" viewBox="0 0 35 37" fill="none" xmlns="http://www.w3.org/2000/svg">
<g clip-path="url(#clip0_223_72)">
<path d="M5.56843 1.54687C7.54099 0.84841 9.78583 0.971232 11.6755 1.86799C13.617 2.78397 15.1604 4.50497 15.8367 6.54412C16.2806 7.79454 16.3591 9.15299 16.1637 10.4582C18.2798 9.83369 20.5957 9.91508 22.6615 10.692C25.2097 11.6302 27.3613 13.6086 28.4756 16.0888C29.729 18.7331 29.7038 21.8925 28.5688 24.5739C30.13 24.5724 31.706 25.1643 32.8025 26.2904C34.0159 27.4417 34.6626 29.1449 34.5708 30.8097C34.5042 32.3176 33.8309 33.79 32.727 34.8199C31.743 35.7818 30.4008 36.3486 29.032 36.4418C27.3702 36.5572 25.664 35.9342 24.4875 34.7504C23.249 33.5666 22.5949 31.8189 22.7162 30.1142C20.1592 31.0746 17.2203 30.9962 14.7402 29.839C12.2645 28.7188 10.2668 26.5805 9.33449 24.0249C8.50433 21.8274 8.47177 19.3399 9.22499 17.1172C7.22579 17.351 5.13929 16.8464 3.513 15.6478C1.81124 14.4344 0.630367 12.5195 0.294455 10.4582C0.013295 8.70313 0.300375 6.8534 1.16013 5.29222C2.09832 3.55495 3.70093 2.18762 5.56843 1.54687ZM4.48374 3.85238C4.48522 4.24305 4.48522 4.63223 4.48818 5.0229C4.84629 5.02438 5.2044 5.02438 5.56251 5.01846C5.54475 7.63325 5.53735 10.248 5.50775 12.8628C5.17036 12.8495 4.83297 12.848 4.4941 12.8525C4.48818 13.2476 4.48522 13.6412 4.48522 14.0348C6.04936 14.0141 7.61498 14.0481 9.17763 14.0185C10.2342 13.9756 11.384 13.6205 12.0129 12.7148C12.6048 11.7737 12.6078 10.4123 11.8353 9.56733C11.3159 8.96654 10.5139 8.71053 9.74143 8.68094C10.1883 8.59955 10.6619 8.50928 11.0141 8.19852C12.1091 7.28254 12.0854 5.36769 10.9682 4.47981C10.36 3.95301 9.52094 3.84646 8.74701 3.8435C7.32642 3.84794 5.90434 3.83315 4.48374 3.85238ZM14.6558 13.8439C14.6514 14.3766 14.6529 14.9094 14.6558 15.4436C15.19 15.4362 15.7227 15.4406 16.257 15.4451C16.2333 18.9507 16.1992 22.4578 16.1844 25.9649C15.7227 25.9767 15.2611 25.9767 14.7994 25.9678C14.7905 26.508 14.7994 27.0496 14.792 27.5897C16.5514 27.5793 18.3124 27.5705 20.0704 27.5956C20.0881 27.054 20.0778 26.5124 20.0807 25.9708C19.5199 25.9738 18.9576 25.9782 18.3967 25.9664C18.3997 24.4466 18.4219 22.9284 18.4219 21.4086C19.8528 21.4101 21.2838 21.4101 22.7148 21.4116C22.7103 20.8359 22.7162 20.2588 22.7074 19.6832C21.2808 19.6817 19.8528 19.7024 18.4263 19.6728C18.4382 18.2655 18.4648 16.8568 18.4589 15.448C19.7936 15.4347 21.1299 15.4362 22.4647 15.4451C22.5076 16.108 22.5446 16.7709 22.589 17.4339C23.1912 17.4354 23.795 17.4354 24.3973 17.4369C24.381 16.2382 24.3381 15.0396 24.3322 13.841C21.1062 13.841 17.8818 13.8321 14.6558 13.8439ZM27.1615 26.7433C27.1615 27.1058 27.163 27.4669 27.1645 27.8309C27.3953 27.8279 27.6277 27.825 27.86 27.8235C27.8437 29.617 27.8585 31.412 27.8541 33.2055C27.6217 33.2025 27.3894 33.2025 27.1586 33.2025C27.1645 33.5577 27.166 33.9143 27.166 34.2709C28.1441 34.2783 29.1222 34.2872 30.1004 34.2665C30.0826 33.9158 30.0826 33.5636 30.1019 33.2129C29.871 33.207 29.6402 33.2011 29.4108 33.1981C29.4138 31.409 29.4167 29.6214 29.4078 27.8324C29.6387 27.8279 29.8681 27.8265 30.0989 27.8235C30.0856 27.4654 30.0811 27.1073 30.0871 26.7492C29.1119 26.7403 28.1367 26.7492 27.1615 26.7433Z" fill="white"/>
<path d="M7.20215 5.01564C8.01011 5.08963 8.92758 4.83363 9.63196 5.34859C10.3719 6.01154 10.2638 7.39071 9.41591 7.92047C8.73373 8.29042 7.92576 8.18387 7.17995 8.18091C7.17255 7.12582 7.20067 6.07073 7.20215 5.01564Z" fill="white"/>
<path d="M7.17851 9.44751C8.09894 9.50522 9.11111 9.28473 9.93684 9.80858C10.8839 10.365 10.8691 11.9306 9.93684 12.4929C9.09927 13.0094 8.0797 12.8022 7.15039 12.8584C7.15779 11.7219 7.16075 10.584 7.17851 9.44751Z" fill="white"/>
</g>
<defs>
<clipPath id="clip0_223_72">
<rect width="35" height="35.9589" fill="white" transform="translate(0 0.648682)"/>
</clipPath>
</defs>
</symbol>



  <symbol id="bdo-logo" viewBox="0 0 110 24">
    <g clip-path="url(#clip0_223_42)">
      <path d="M41.8391 8.94198C41.8391 15.8971 47.4672 17.8458 51.1057 17.8458C54.7442 17.8458 60.3723 15.8972 60.3723 8.94332C60.3723 1.9895 54.7436 0.0395508 51.1057 0.0395508C47.4464 0.0395508 41.8391 1.98815 41.8391 8.94198ZM45.4985 8.94198C45.4985 4.02008 48.9011 2.62582 51.0842 2.62582C53.2888 2.62582 56.67 4.01672 56.67 8.94198C56.67 13.8672 53.2673 15.2581 51.0842 15.2581C48.9011 15.2581 45.4985 13.8646 45.4985 8.94198Z" fill="white"/>
      <path d="M0 0.231689V21.9532L3.44567 19.5565V0.231689H0Z" fill="white"/>
      <path d="M4.08736 20.3486L0 23.2164H60.1574V20.3486H4.08736Z" fill="white"/>
      <path d="M69.3816 6.71657V3.16406H70.6657V6.69507C70.6657 7.06395 70.8122 7.41774 71.073 7.67858C71.3339 7.93942 71.6877 8.08596 72.0565 8.08596C72.4254 8.08596 72.7792 7.93942 73.0401 7.67858C73.3009 7.41774 73.4475 7.06395 73.4475 6.69507V3.16406H74.7315V6.71657C74.7315 8.19482 73.854 9.19936 72.0565 9.19936C70.2591 9.19936 69.3816 8.19347 69.3816 6.71657Z" fill="white"/>
      <path d="M79.9963 9.09185L77.1742 5.21816V9.09185H75.9089V3.16406H77.2145L79.9755 6.88791V3.16406H81.238V9.09185H79.9963Z" fill="white"/>
      <path d="M82.3931 9.09185V3.16406H83.6556V9.09185H82.3931Z" fill="white"/>
      <path d="M90.3755 18.9148V12.9871H92.7084C94.5704 12.9871 95.8544 14.1643 95.8544 15.9617C95.8544 17.7591 94.5704 18.9363 92.7084 18.9363H90.3755V18.9148ZM94.5912 15.9583C94.6093 15.7092 94.5736 15.4591 94.4864 15.2249C94.3992 14.9908 94.2627 14.7782 94.086 14.6016C93.9094 14.4249 93.6968 14.2884 93.4627 14.2012C93.2286 14.114 92.9784 14.0783 92.7293 14.0964H91.6595V17.7988H92.7273C92.9733 17.8123 93.2194 17.7742 93.4499 17.687C93.6803 17.5998 93.89 17.4654 94.0655 17.2925C94.241 17.1195 94.3784 16.9118 94.4689 16.6826C94.5595 16.4535 94.6011 16.2079 94.5912 15.9617V15.9583Z" fill="white"/>
      <path d="M108.737 18.9148V14.7636L107.068 18.9155H106.512L104.843 14.7636V18.9155H103.58V12.9871H105.356L106.789 16.5826L108.223 12.9871H110V18.9148H108.737Z" fill="white"/>
    </g>
    <defs>
      <clipPath id="clip0_223_42">
        <rect width="110" height="23.177" fill="white" transform="translate(0 0.0395508)"/>
      </clipPath>
    </defs>
  </symbol>

  <symbol id="nao-logo" viewBox="0 0 100 40">
    <g clip-path="url(#clip0_223_67)">
      <path d="M21.0106 16.5455C21.7695 16.5455 22.3731 16.2811 22.8235 15.756C23.2738 15.2424 23.498 14.5372 23.498 13.6365C23.498 12.7378 23.2738 12.0268 22.8235 11.5075C22.3674 10.9882 21.7618 10.7275 21.0106 10.7275C20.2594 10.7275 19.6539 10.9882 19.1978 11.5075C18.7417 12.0421 18.5117 12.7512 18.5117 13.6365C18.5117 14.5295 18.7398 15.2348 19.1978 15.756C19.6481 16.283 20.2518 16.5455 21.0106 16.5455ZM14.8592 14.0485C14.4874 13.121 14.0965 12.0958 13.6883 10.9709C13.2035 12.2644 12.8164 13.2897 12.5289 14.0485L12.3699 14.4606H15.0144L14.8592 14.0485Z" fill="white"/>
    </g>
    <defs>
      <clipPath id="clip0_223_67">
        <rect width="100" height="39.2561" fill="white"/>
      </clipPath>
    </defs>
  </symbol>

  <symbol id="ons-logo" viewBox="0 0 130 29">
    <path d="M1.01563 17.1986C1.39157 16.4173 1.79375 15.6488 2.2215 14.8946C1.73264 13.6898 1.32968 12.452 1.01562 11.1903L1.01563 17.1986ZM3.36298 2.01636C3.36298 2.01636 1.01563 2.01636 1.01563 4.92333V6.47399C1.21607 9.09027 1.78888 11.6646 2.71672 14.119C4.02766 12.023 5.6457 10.1356 7.5168 8.51987C11.3094 5.26811 16.411 3.02847 23.3477 2.03802L3.36298 2.01636Z" fill="white"/>
  </symbol>
</svg>