<svg width="100" height="40" viewBox="0 0 100 40" fill="none" xmlns="http://www.w3.org/2000/svg">
<g clip-path="url(#clip0_223_67)">
<path d="M8.3974 33.833C8.3974 35.5232 8.4089 36.8857 8.42997 37.9224C8.08887 37.3379 7.5408 36.4449 6.78576 35.2434L4.1623 31.1635H3.02783V39.078H3.94959V36.4104C3.94959 34.7202 3.93809 33.3577 3.91701 32.321C4.25812 32.9055 4.80619 33.7985 5.56122 35L8.18468 39.0799H9.31915V31.1654H8.3974V33.833ZM14.7826 34.1549C14.338 33.5244 13.7076 33.2102 12.8931 33.2102C12.0863 33.2102 11.4482 33.4804 10.9806 34.0208C10.5054 34.5612 10.2697 35.2913 10.2697 36.2111C10.2697 37.1291 10.5073 37.8592 10.9806 38.4015C11.4482 38.9419 12.0844 39.2121 12.8931 39.2121C13.7535 39.2121 14.3974 38.8748 14.8267 38.2003V39.078H15.6718V33.3443H14.7826V34.1549ZM14.3208 37.8285C13.9988 38.2175 13.56 38.4111 13.0043 38.4111C12.4409 38.4111 12.0001 38.2214 11.682 37.8438C11.3639 37.4663 11.2048 36.9355 11.2048 36.2552C11.2048 35.5653 11.3677 35.0173 11.6935 34.611C12.0116 34.2105 12.4485 34.0112 13.0043 34.0112C13.5677 34.0112 14.0084 34.2047 14.3265 34.5899C14.6446 34.9751 14.8037 35.5155 14.8037 36.213C14.8037 36.901 14.6427 37.4395 14.3208 37.8285ZM18.1611 31.7212H17.2719V33.3443H16.3272V34.1223H17.2719V39.0799H18.1611V34.1223H19.2266V33.3443H18.1611V31.7212ZM20.386 31.3321C20.2231 31.3321 20.0813 31.3916 19.9644 31.5104C19.8456 31.6292 19.7862 31.7691 19.7862 31.932C19.7862 32.0948 19.8456 32.2367 19.9644 32.3536C20.0832 32.4724 20.2231 32.5318 20.386 32.5318C20.5489 32.5318 20.6888 32.4724 20.8076 32.3536C20.9264 32.2347 20.9858 32.0948 20.9858 31.932C20.9858 31.7691 20.9264 31.6292 20.8076 31.5104C20.6888 31.3916 20.5489 31.3321 20.386 31.3321ZM19.9414 33.3443H20.8306V39.0799H19.9414V33.3443ZM24.4831 33.2102C23.6763 33.2102 23.0075 33.4842 22.4824 34.0323C21.9631 34.5727 21.7044 35.299 21.7044 36.2111C21.7044 37.1233 21.9631 37.8496 22.4824 38.39C23.0094 38.9381 23.6763 39.2121 24.4831 39.2121C25.2899 39.2121 25.9568 38.9381 26.4837 38.39C27.0031 37.8496 27.2618 37.1233 27.2618 36.2111C27.2618 35.299 27.0031 34.5746 26.4837 34.0323C25.9568 33.4842 25.2899 33.2102 24.4831 33.2102ZM25.8264 37.8228C25.493 38.2156 25.0446 38.4111 24.4812 38.4111C23.9178 38.4111 23.4694 38.2156 23.1359 37.8228C22.8025 37.4376 22.6357 36.901 22.6357 36.2111C22.6357 35.5155 22.8025 34.9732 23.1359 34.588C23.4694 34.2028 23.9178 34.0093 24.4812 34.0093C25.0446 34.0093 25.493 34.2028 25.8264 34.588C26.1599 34.9732 26.3266 35.5136 26.3266 36.2111C26.3266 36.901 26.1599 37.4376 25.8264 37.8228ZM30.8032 33.2102C30.0405 33.2102 29.4387 33.5398 29.0018 34.199V33.3443H28.1567V39.0799H29.0459V35.8336C29.0459 35.2415 29.2049 34.7892 29.523 34.4768C29.8412 34.1664 30.2091 34.0093 30.623 34.0093C31.4969 34.0093 31.9338 34.4347 31.9338 35.2875V39.078H32.823V35.1993C32.823 34.5688 32.6448 34.0802 32.2902 33.7314C31.9357 33.3845 31.4394 33.2102 30.8032 33.2102ZM38.2385 34.1549C37.7939 33.5244 37.1635 33.2102 36.349 33.2102C35.5422 33.2102 34.9041 33.4804 34.4365 34.0208C33.9613 34.5612 33.7256 35.2913 33.7256 36.2111C33.7256 37.1291 33.9632 37.8592 34.4365 38.4015C34.9041 38.9419 35.5403 39.2121 36.349 39.2121C37.2095 39.2121 37.8533 38.8748 38.2826 38.2003V39.078H39.1277V33.3443H38.2385V34.1549ZM37.7786 37.8285C37.4567 38.2175 37.0178 38.4111 36.4621 38.4111C35.8987 38.4111 35.4579 38.2214 35.1398 37.8438C34.8217 37.4663 34.6627 36.9355 34.6627 36.2552C34.6627 35.5653 34.8255 35.0173 35.1513 34.611C35.4694 34.2105 35.9064 34.0112 36.4621 34.0112C37.0255 34.0112 37.4662 34.2047 37.7844 34.5899C38.1025 34.9751 38.2615 35.5155 38.2615 36.213C38.2615 36.901 38.1006 37.4395 37.7786 37.8285ZM41.1916 37.8458V31.1654H40.3024V37.9224C40.3024 38.7158 40.7317 39.1125 41.5921 39.1125C41.755 39.1125 41.9447 39.101 42.1593 39.0799V38.3344H41.7378C41.3717 38.3344 41.1916 38.1715 41.1916 37.8458ZM47.7033 31.1654L44.5471 39.0799H45.5244L46.4366 36.7784H50.0374L50.9592 39.0799H51.948L48.7477 31.1654H47.7033ZM49.7039 35.9333H46.77L46.8026 35.8451C47.2185 34.8084 47.688 33.5858 48.215 32.1772C48.993 34.1626 49.474 35.3814 49.6599 35.8336L49.7039 35.9333ZM56.1428 36.9336C56.1428 37.3935 56.0068 37.7576 55.7366 38.0278C55.4664 38.298 55.1118 38.4341 54.6749 38.4341C54.2457 38.4341 53.9007 38.2999 53.642 38.0336C53.3833 37.7672 53.253 37.3993 53.253 36.9336V33.3443H52.3638V36.924C52.3638 37.5909 52.5784 38.139 53.0077 38.5682C53.4293 38.9975 53.985 39.2121 54.6749 39.2121C55.3571 39.2121 55.9225 38.9936 56.3747 38.5567C56.8116 38.1198 57.0301 37.5756 57.0301 36.9221V33.3443H56.1409V36.9336H56.1428ZM62.5051 34.1664C62.0451 33.5283 61.4051 33.2102 60.583 33.2102C59.7685 33.2102 59.1227 33.4804 58.6494 34.0208C58.1607 34.5612 57.9154 35.2913 57.9154 36.2111C57.9154 37.1156 58.1607 37.8419 58.6494 38.39C59.1304 38.9381 59.7762 39.2121 60.583 39.2121C61.4357 39.2121 62.0911 38.871 62.551 38.1888V39.078H63.3962V31.1635H62.507V34.1664H62.5051ZM62.0375 37.8228C61.704 38.2156 61.2556 38.4111 60.6922 38.4111C60.1288 38.4111 59.6804 38.2214 59.3469 37.8438C59.0135 37.4663 58.8468 36.9355 58.8468 36.2552C58.8468 35.5653 59.0154 35.0192 59.3527 34.6167C59.69 34.2124 60.1365 34.0112 60.6922 34.0112C61.2556 34.0112 61.704 34.2086 62.0375 34.5995C62.3709 34.9923 62.5376 35.5289 62.5376 36.2111C62.5376 36.901 62.3709 37.4376 62.0375 37.8228ZM64.5804 33.3443H65.4696V39.0799H64.5804V33.3443ZM65.025 31.3321C64.8621 31.3321 64.7203 31.3916 64.6034 31.5104C64.4846 31.6292 64.4252 31.7691 64.4252 31.932C64.4252 32.0948 64.4846 32.2367 64.6034 32.3536C64.7223 32.4724 64.8621 32.5318 65.025 32.5318C65.1879 32.5318 65.3278 32.4724 65.4466 32.3536C65.5654 32.2347 65.6248 32.0948 65.6248 31.932C65.6248 31.7691 65.5654 31.6292 65.4466 31.5104C65.3297 31.3916 65.1879 31.3321 65.025 31.3321ZM67.9589 31.7212H67.0698V33.3443H66.125V34.1223H67.0698V39.0799H67.9589V34.1223H69.0263V33.3443H67.9589V31.7212ZM75.5955 30.9872C74.4553 30.9872 73.5393 31.3647 72.8494 32.1217C72.1519 32.8844 71.805 33.8847 71.805 35.1227C71.805 36.3683 72.1538 37.3648 72.8494 38.1121C73.5393 38.8748 74.4534 39.2562 75.5955 39.2562C76.7377 39.2562 77.6556 38.8748 78.3512 38.1121C79.0411 37.3571 79.3841 36.3606 79.3841 35.1227C79.3841 33.8924 79.0392 32.892 78.3512 32.1217C77.6556 31.3647 76.7357 30.9872 75.5955 30.9872ZM77.6403 37.5123C77.1286 38.1045 76.4464 38.4015 75.5955 38.4015C74.7447 38.4015 74.0625 38.1045 73.5508 37.5123C73.0391 36.9278 72.7843 36.1306 72.7843 35.1227C72.7843 34.1147 73.0391 33.3175 73.5508 32.733C74.0625 32.1408 74.7447 31.8438 75.5955 31.8438C76.4464 31.8438 77.1286 32.1408 77.6403 32.733C78.1519 33.3175 78.4068 34.1147 78.4068 35.1227C78.4068 36.1306 78.1519 36.9259 77.6403 37.5123ZM80.8271 32.7541V33.3443H79.8824V34.1223H80.8271V39.0799H81.7163V34.1223H82.9389V33.3443H81.7163V32.733C81.7163 32.1926 81.9712 31.9224 82.4828 31.9224H82.9945V31.1673C82.7569 31.152 82.5691 31.1443 82.4273 31.1443C81.3618 31.1424 80.8271 31.6809 80.8271 32.7541ZM84.3915 32.7541V33.3443H83.4467V34.1223H84.3915V39.0799H85.2807V34.1223H86.5033V33.3443H85.2807V32.733C85.2807 32.1926 85.5355 31.9224 86.0472 31.9224H86.5589V31.1673C86.3212 31.152 86.1334 31.1443 85.9916 31.1443C84.9262 31.1424 84.3915 31.6809 84.3915 32.7541ZM87.8007 31.3321C87.6378 31.3321 87.496 31.3916 87.3791 31.5104C87.2602 31.6292 87.2008 31.7691 87.2008 31.932C87.2008 32.0948 87.2602 32.2367 87.3791 32.3536C87.4979 32.4724 87.6378 32.5318 87.8007 32.5318C87.9635 32.5318 88.1034 32.4724 88.2222 32.3536C88.3411 32.2347 88.4005 32.0948 88.4005 31.932C88.4005 31.7691 88.3411 31.6292 88.2222 31.5104C88.1053 31.3916 87.9635 31.3321 87.8007 31.3321ZM87.3561 33.3443H88.2452V39.0799H87.3561V33.3443ZM91.6985 34.0112C92.0913 34.0112 92.4305 34.1223 92.716 34.3446C93.0016 34.5669 93.1779 34.8812 93.243 35.2894H94.1648C94.0766 34.6455 93.8122 34.1377 93.3753 33.7659C92.9383 33.396 92.3788 33.2102 91.6966 33.2102C90.8898 33.2102 90.2478 33.4804 89.7745 34.0208C89.2858 34.5612 89.0405 35.2913 89.0405 36.2111C89.0405 37.1156 89.2858 37.8419 89.7745 38.39C90.2631 38.9381 90.9051 39.2121 91.6966 39.2121C92.3481 39.2121 92.8981 39.0224 93.3465 38.6449C93.7949 38.2674 94.0671 37.7557 94.1629 37.1118H93.2507C93.1836 37.52 93.0054 37.8381 92.718 38.0681C92.4286 38.298 92.0875 38.413 91.6946 38.413C91.1753 38.413 90.7595 38.2214 90.4452 37.8343C90.1309 37.4491 89.9738 36.9087 89.9738 36.2111C89.9738 35.5078 90.129 34.9655 90.4414 34.5822C90.7537 34.2009 91.1715 34.0112 91.6985 34.0112ZM100 36.2111C100 35.3507 99.7662 34.6359 99.3006 34.0668C98.833 33.4957 98.1891 33.2102 97.367 33.2102C96.5736 33.2102 95.9374 33.4842 95.4545 34.0323C94.9658 34.5803 94.7205 35.3066 94.7205 36.2111C94.7205 37.1291 94.9677 37.8592 95.466 38.4015C95.9547 38.9419 96.5966 39.2121 97.3881 39.2121C98.032 39.2121 98.5666 39.0435 98.9882 38.7062C99.4098 38.3689 99.6992 37.9109 99.8544 37.3341H98.9326C98.7103 38.0451 98.2025 38.4015 97.4091 38.4015C96.8821 38.4015 96.4682 38.2444 96.1635 37.9301C95.8588 37.6158 95.6864 37.1463 95.6404 36.5235H99.9981V36.2111H100ZM95.6653 35.7225C95.74 35.1744 95.924 34.7528 96.221 34.4615C96.518 34.1683 96.8994 34.0227 97.3651 34.0227C97.8461 34.0227 98.2351 34.1798 98.5321 34.4941C98.8291 34.8084 98.9997 35.2185 99.0438 35.7225H95.6653ZM36.6422 3.5434V4.23712C36.9853 4.26011 37.2382 4.32143 37.3762 4.36168C37.3034 3.96691 37.0159 3.6488 36.6422 3.5434ZM36.2168 3.05474C36.2168 3.28853 36.1689 3.44375 36.098 3.5434C36.1057 3.54149 36.2206 3.50699 36.3682 3.50699C36.464 3.50699 36.6269 3.54149 36.6384 3.5434C36.5675 3.44375 36.5196 3.28853 36.5196 3.05474C37.0332 3.05474 37.1596 3.30195 37.1596 3.50316H37.2574V2.29395H37.1596C37.1596 2.49709 37.0332 2.74429 36.5196 2.74429C36.5196 2.21922 36.761 2.09082 36.9603 2.09082V1.98926H35.776V2.09082C35.9753 2.09082 36.2168 2.21922 36.2168 2.74429C35.7013 2.74429 35.5767 2.49709 35.5767 2.29395H35.479V3.50316H35.5767C35.5767 3.30195 35.7032 3.05474 36.2168 3.05474ZM36.098 3.5434C35.7243 3.64689 35.4369 3.96308 35.364 4.35785C35.502 4.31377 35.7511 4.25436 36.098 4.23328V3.5434ZM34.7642 5.47698C34.906 5.47698 35.021 5.35817 35.021 5.21445C35.021 5.0688 34.906 4.95191 34.7642 4.95191C34.6224 4.95191 34.5074 5.0688 34.5074 5.21445C34.5074 5.35817 34.6224 5.47698 34.7642 5.47698ZM31.4355 6.75901C31.2937 6.75901 31.1788 6.87782 31.1788 7.02346C31.1788 7.16911 31.2937 7.286 31.4355 7.286C31.5774 7.286 31.6923 7.16719 31.6923 7.02346C31.6923 6.87782 31.5774 6.75901 31.4355 6.75901ZM31.2995 6.62295C31.4413 6.62295 31.5563 6.50414 31.5563 6.3585C31.5563 6.21477 31.4413 6.09596 31.2995 6.09596C31.1577 6.09596 31.0427 6.21477 31.0427 6.3585C31.0408 6.50414 31.1577 6.62295 31.2995 6.62295ZM31.3627 5.95032C31.5065 5.95032 31.6214 5.83342 31.6214 5.68778C31.6214 5.54214 31.5065 5.42333 31.3627 5.42333C31.2209 5.42333 31.1059 5.54022 31.1059 5.68778C31.104 5.83342 31.2209 5.95032 31.3627 5.95032ZM31.7096 5.3735C31.8533 5.3735 31.9664 5.25661 31.9664 5.11096C31.9664 4.96532 31.8514 4.84843 31.7096 4.84843C31.5678 4.84843 31.4547 4.96532 31.4547 5.11096C31.4547 5.25661 31.5678 5.3735 31.7096 5.3735ZM32.2462 4.98065C32.388 4.98065 32.5029 4.86376 32.5029 4.71812C32.5029 4.57247 32.388 4.45558 32.2462 4.45558C32.1044 4.45558 31.9894 4.57247 31.9894 4.71812C31.9894 4.86376 32.1044 4.98065 32.2462 4.98065ZM32.8958 4.86184C33.0376 4.86184 33.1526 4.74303 33.1526 4.5993C33.1526 4.45366 33.0376 4.33485 32.8958 4.33485C32.754 4.33485 32.639 4.45175 32.639 4.5993C32.639 4.74494 32.754 4.86184 32.8958 4.86184ZM33.5378 4.9979C33.6796 4.9979 33.7946 4.881 33.7946 4.73536C33.7946 4.58972 33.6796 4.47091 33.5378 4.47091C33.396 4.47091 33.281 4.58972 33.281 4.73536C33.281 4.881 33.396 4.9979 33.5378 4.9979ZM34.1567 5.24319C34.2986 5.24319 34.4135 5.12629 34.4135 4.98065C34.4135 4.83693 34.2986 4.71812 34.1567 4.71812C34.013 4.71812 33.9 4.83501 33.9 4.98065C33.9 5.12629 34.0149 5.24319 34.1567 5.24319ZM37.9741 5.47698C38.1159 5.47698 38.2309 5.35817 38.2309 5.21445C38.2309 5.0688 38.1159 4.95191 37.9741 4.95191C37.8323 4.95191 37.7173 5.0688 37.7173 5.21445C37.7173 5.35817 37.8323 5.47698 37.9741 5.47698ZM41.046 7.02346C41.046 7.16911 41.1609 7.286 41.3027 7.286C41.4446 7.286 41.5615 7.16719 41.5615 7.02346C41.5615 6.87782 41.4446 6.75901 41.3027 6.75901C41.1609 6.75901 41.046 6.87782 41.046 7.02346ZM41.6975 6.3585C41.6975 6.21477 41.5825 6.09596 41.4407 6.09596C41.2989 6.09596 41.1839 6.21477 41.1839 6.3585C41.1839 6.50414 41.2989 6.62295 41.4407 6.62295C41.5825 6.62295 41.6975 6.50414 41.6975 6.3585ZM41.1207 5.68586C41.1207 5.83151 41.2338 5.9484 41.3775 5.9484C41.5212 5.9484 41.6343 5.83151 41.6343 5.68586C41.6343 5.54022 41.5193 5.42141 41.3775 5.42141C41.2357 5.42141 41.1207 5.54022 41.1207 5.68586ZM41.0287 5.3735C41.1705 5.3735 41.2874 5.25661 41.2874 5.11096C41.2874 4.96532 41.1724 4.84843 41.0287 4.84843C40.8888 4.84843 40.7719 4.96532 40.7719 5.11096C40.7719 5.25661 40.8869 5.3735 41.0287 5.3735ZM40.4921 4.98065C40.6339 4.98065 40.7489 4.86376 40.7489 4.71812C40.7489 4.57247 40.6339 4.45558 40.4921 4.45558C40.3503 4.45558 40.2334 4.57247 40.2334 4.71812C40.2334 4.86376 40.3503 4.98065 40.4921 4.98065ZM39.8444 4.86184C39.9843 4.86184 40.1012 4.74303 40.1012 4.5993C40.1012 4.45366 39.9843 4.33485 39.8444 4.33485C39.7026 4.33485 39.5857 4.45175 39.5857 4.5993C39.5857 4.74494 39.7007 4.86184 39.8444 4.86184ZM39.2005 4.9979C39.3423 4.9979 39.4573 4.881 39.4573 4.73536C39.4573 4.58972 39.3423 4.47091 39.2005 4.47091C39.0587 4.47091 38.9418 4.58972 38.9418 4.73536C38.9418 4.881 39.0587 4.9979 39.2005 4.9979ZM38.5816 5.24319C38.7253 5.24319 38.8383 5.12629 38.8383 4.98065C38.8383 4.83693 38.7253 4.71812 38.5816 4.71812C38.4397 4.71812 38.3248 4.83501 38.3248 4.98065C38.3248 5.12629 38.4397 5.24319 38.5816 5.24319ZM38.2903 8.69834C38.1331 8.69834 38.0067 8.82865 38.0067 8.98771C38.0067 9.14868 38.1331 9.27707 38.2903 9.27707C38.4455 9.27707 38.572 9.14676 38.572 8.98771C38.572 8.82865 38.4455 8.69834 38.2903 8.69834ZM35.9811 8.98771L36.3701 9.3863L36.7591 8.98771L36.3701 8.58911L35.9811 8.98771ZM34.448 8.69834C34.2909 8.69834 34.1644 8.82865 34.1644 8.98771C34.1644 9.14868 34.2909 9.27707 34.448 9.27707C34.6052 9.27707 34.7316 9.14676 34.7316 8.98771C34.7316 8.82865 34.6052 8.69834 34.448 8.69834Z" fill="white"/>
<path d="M35.3907 5.67802C34.925 5.72402 34.4575 5.53047 34.0071 5.34458C33.6066 5.17786 33.1946 5.00731 32.7845 5.00731C32.4971 5.00731 32.11 5.16636 31.8819 5.52663C31.6941 5.81983 31.5561 6.35257 31.9375 7.23217L31.6558 7.35673L32.315 8.92238L32.1464 9.29798L32.5871 9.50494H32.5775C32.3265 9.50494 32.1253 9.7119 32.1253 9.96678C32.1253 10.2102 32.3093 10.4114 32.545 10.4286H40.2045C40.4441 10.4152 40.6338 10.214 40.6338 9.96678C40.6338 9.70999 40.4307 9.50494 40.1815 9.50494C40.172 9.50494 40.1624 9.50494 40.1528 9.50686L40.5936 9.29989L40.4249 8.92238L41.0822 7.35865L40.8005 7.23409H40.7986L40.1317 8.81889L39.7753 8.98753L40.0052 9.50686H32.7328L32.9646 8.98753L32.6044 8.81889L31.9375 7.23409L32.5162 6.97538L32.5565 7.07311C32.3648 7.15935 32.1847 7.38356 32.3974 7.88947C32.8937 7.67293 32.9148 7.38164 32.8324 7.18618L32.9263 7.14402L33.1716 7.7285L33.4188 8.31298L33.323 8.35514C33.2406 8.15967 33.0183 7.97379 32.522 8.19225C32.7366 8.69816 33.1237 8.90896 33.4207 8.90896C33.9343 8.90896 34.3157 8.58318 34.262 8.25358C34.2198 8.01212 34.0033 7.92588 33.9209 7.94121C33.8174 7.96229 33.7523 8.06961 33.7695 8.15393C33.7733 8.17309 33.781 8.18842 33.7906 8.20567L33.7772 8.22675C33.6392 8.21525 33.5204 8.10985 33.4935 7.96613C33.461 7.78982 33.574 7.62119 33.7446 7.58861C33.7943 7.57861 33.8456 7.58107 33.8941 7.59579C33.9426 7.6105 33.9867 7.637 34.0225 7.67293L34.057 7.61927C33.965 7.56944 33.8941 7.47938 33.873 7.36631C33.8212 7.08653 34.1279 6.81633 34.1336 6.81441C34.1355 6.81441 34.5207 6.95047 34.5744 7.23025C34.5954 7.34332 34.5609 7.45638 34.4939 7.53687L34.5437 7.57328C34.5839 7.47938 34.6663 7.40847 34.7717 7.38739C34.9423 7.35481 35.1109 7.46979 35.1416 7.64418C35.1684 7.78982 35.0956 7.92971 34.973 7.99295L34.9538 7.97954C34.9557 7.96038 34.9557 7.94121 34.9538 7.92397C34.9385 7.83965 34.8407 7.76108 34.7353 7.78216C34.6529 7.7994 34.4881 7.96038 34.5322 8.20183C34.6089 8.61193 34.9461 8.90896 35.3562 8.90896C35.7644 8.90896 36.1898 8.56019 36.1898 8.05236C35.6073 8.05236 35.4655 8.33023 35.4655 8.56211H35.3543V7.19001H35.4655C35.4655 7.41997 35.6073 7.69975 36.1898 7.69975C36.1898 7.10378 35.9177 6.95813 35.6916 6.95813V6.84507H37.0368V6.95813C36.8107 6.95813 36.5367 7.10378 36.5367 7.69975C37.1193 7.69975 37.263 7.41997 37.263 7.19001H37.3741V8.56211H37.263C37.263 8.33214 37.1193 8.05236 36.5367 8.05236C36.5367 8.56019 36.964 8.90896 37.3741 8.90896C37.7842 8.90896 38.1215 8.61193 38.1962 8.20183C38.2422 7.95846 38.0755 7.7994 37.9931 7.78216C37.8877 7.76108 37.79 7.83965 37.7766 7.92397C37.7727 7.94313 37.7727 7.96038 37.7766 7.97954L37.7574 7.99295C37.6951 7.96105 37.6448 7.90983 37.6141 7.84696C37.5833 7.78408 37.5738 7.71294 37.5868 7.64418C37.6194 7.46979 37.7861 7.35481 37.9548 7.38739C38.0621 7.40847 38.1464 7.48129 38.1886 7.57328L38.2384 7.53687C38.1694 7.45446 38.1349 7.34332 38.1579 7.22834C38.2096 6.94855 38.5948 6.81249 38.5987 6.81249C38.6025 6.81441 38.911 7.08461 38.8574 7.3644C38.8363 7.47938 38.7654 7.57136 38.6715 7.61927L38.706 7.67293C38.7419 7.63606 38.7866 7.60883 38.8358 7.59376C38.885 7.57869 38.9373 7.57626 38.9877 7.58669C39.1582 7.61927 39.2694 7.78791 39.2368 7.96421C39.21 8.10793 39.0931 8.21333 38.9551 8.22483L38.9417 8.20375C38.9493 8.1865 38.9589 8.17117 38.9608 8.15201C38.9781 8.06769 38.9149 7.96038 38.8095 7.9393C38.7271 7.92397 38.5105 8.0102 38.4683 8.25166C38.4147 8.58127 38.796 8.90704 39.3096 8.90704C39.6067 8.90704 39.9957 8.69625 40.2084 8.19034C39.714 7.97187 39.4917 8.15584 39.4093 8.35322L39.3134 8.31106L39.5587 7.72658L39.804 7.1421L39.8979 7.18426C39.8155 7.37973 39.8385 7.67101 40.3349 7.88756C40.5476 7.38164 40.3655 7.15552 40.1758 7.0712L40.216 6.97346L40.7967 7.23217C41.178 6.35257 41.0382 5.81983 40.8542 5.52663C40.6261 5.16828 40.2371 5.00731 39.9497 5.00731C39.5396 5.00731 39.1276 5.17786 38.7271 5.34458C38.2748 5.53047 37.8091 5.72402 37.3435 5.67802C37.399 5.50172 37.468 5.335 37.5466 5.19127L37.2649 5.04755C37.3243 4.93832 37.3607 4.81759 37.378 4.68728C37.3454 4.67578 36.9679 4.53589 36.347 4.53589C35.728 4.53589 35.3792 4.67386 35.3505 4.68728C35.3677 4.81567 35.408 4.93832 35.4655 5.04755L35.1818 5.19127C35.2662 5.33692 35.3351 5.50364 35.3907 5.67802ZM39.2445 9.77323L40.1164 9.95528L39.2445 10.1392V9.77323ZM37.6558 9.77323L38.5278 9.95528L37.6558 10.1392V9.77323ZM36.0461 9.77323L36.918 9.95528L36.0461 10.1392V9.77323ZM34.4345 9.77323L35.3083 9.95528L34.4345 10.1392V9.77323ZM32.8631 9.77323L33.735 9.95528L32.8631 10.1392V9.77323ZM37.2591 5.99805C37.8225 6.0747 38.3457 5.85816 38.8516 5.64736C39.2368 5.48639 39.6066 5.335 39.9516 5.335C40.0915 5.335 40.4019 5.41165 40.5897 5.70485C40.7699 5.99039 40.7679 6.40048 40.5878 6.90064C40.492 6.59211 40.2084 6.36982 39.8749 6.36982C39.6086 6.36982 39.3729 6.51354 39.2406 6.72817C39.1448 6.51546 38.957 6.35066 38.7136 6.29892C38.3879 6.22609 38.0659 6.38515 37.9088 6.66685C37.7804 6.43689 37.537 6.28167 37.2611 6.28167C37.24 6.28167 37.2208 6.28167 37.2017 6.28358C37.217 6.18777 37.2381 6.09387 37.2591 5.99805ZM36.368 4.69686C36.5214 4.69686 36.6478 4.81184 36.667 4.96323C36.5884 4.88849 36.483 4.84442 36.368 4.84442C36.2512 4.84442 36.1477 4.88849 36.0691 4.96323C36.0902 4.81184 36.2147 4.69686 36.368 4.69686ZM36.368 4.98814C36.5233 4.98814 36.6497 5.10696 36.667 5.26026C36.5864 5.18338 36.4794 5.1402 36.368 5.13953C36.2512 5.13953 36.1458 5.18553 36.0691 5.26026C36.0863 5.10696 36.2147 4.98814 36.368 4.98814ZM36.0691 5.5937C36.0691 5.42315 36.2032 5.28326 36.37 5.28326C36.5367 5.28326 36.6727 5.42315 36.6727 5.5937C36.6727 5.60137 36.6708 5.60904 36.6708 5.6167C36.591 5.53744 36.4832 5.49265 36.3707 5.49193C36.2582 5.49121 36.1499 5.53463 36.0691 5.61287V5.5937ZM36.368 5.6397C36.5348 5.6397 36.6689 5.77767 36.6689 5.95014C36.6689 5.98464 36.6632 6.02105 36.6536 6.05362C36.575 5.98655 36.4754 5.94631 36.368 5.94631C36.2588 5.94631 36.1592 5.98847 36.0825 6.05362C36.071 6.02105 36.0634 5.98464 36.0634 5.95014C36.0653 5.77767 36.2013 5.6397 36.368 5.6397ZM36.368 6.09004C36.5348 6.09004 36.6689 6.22993 36.6689 6.39856C36.6689 6.57103 36.5348 6.70901 36.368 6.70901C36.1994 6.70901 36.0653 6.56912 36.0653 6.39856C36.0653 6.22993 36.2013 6.09004 36.368 6.09004ZM35.4789 5.99805C35.4999 6.09387 35.521 6.18777 35.5364 6.28358C35.5172 6.28167 35.498 6.28167 35.4789 6.28167C35.201 6.28167 34.9595 6.43881 34.8292 6.66685C34.6702 6.38515 34.3482 6.22609 34.0225 6.29892C33.9072 6.32373 33.7995 6.37559 33.7082 6.45023C33.6169 6.52486 33.5446 6.62013 33.4974 6.72817C33.3652 6.51354 33.1294 6.36982 32.8631 6.36982C32.5277 6.36982 32.246 6.59403 32.1502 6.90256C31.9681 6.4024 31.9662 5.99422 32.1483 5.70677C32.3342 5.41357 32.6446 5.33692 32.7845 5.33692C33.1314 5.33692 33.4993 5.48831 33.8864 5.64928C34.3923 5.85816 34.9155 6.0747 35.4789 5.99805ZM30.2952 23.705C30.2952 24.1457 30.6535 24.5041 31.0924 24.5041C31.5331 24.5041 31.8915 24.1476 31.8915 23.705C31.8915 23.2891 31.5734 22.9519 31.1671 22.9135V22.8426H31.3913C31.4986 22.8426 31.583 22.7698 31.583 22.6759V21.8346C31.5772 21.7446 31.4948 21.6756 31.3894 21.6756H31.1671V21.5587H31.3913C31.4986 21.5587 31.583 21.4859 31.583 21.392V20.5507C31.5772 20.4606 31.4948 20.3935 31.3894 20.3935H31.1652V20.2767H31.3894C31.4986 20.2767 31.581 20.2057 31.581 20.1099V19.2687C31.5753 19.1786 31.4929 19.1096 31.3875 19.1096H31.1633V18.9927H31.3875C31.4948 18.9927 31.5791 18.9199 31.5791 18.826V17.9847C31.5734 17.8946 31.491 17.8257 31.3856 17.8257H31.1633V17.7183H31.3875C31.4948 17.7183 31.5791 17.6455 31.5791 17.5516V16.7123C31.5734 16.6222 31.491 16.5532 31.3856 16.5532H31.1633V16.4823C31.3096 16.4689 31.4493 16.4152 31.567 16.3273C31.6847 16.2393 31.7758 16.1205 31.8302 15.9841H32.0697V22.743H32.0659L32.0831 24.1553L32.2115 24.4945L32.2882 24.5002H32.2958L32.3706 24.4945L32.9819 22.8215L32.6389 22.7391H32.6293V21.8845H33.6679V22.7411L33.6066 22.7391L33.2636 22.8215L33.8749 24.4945L33.9496 24.5002H33.9573L34.032 24.4945L34.6433 22.8215L34.3003 22.7391L34.2237 22.743V21.8845H35.2623V22.7411L35.1972 22.7391L34.8541 22.8215L35.4674 24.4945L35.5421 24.5002H35.5479L35.6226 24.4945L36.2339 22.8215L35.889 22.7391L35.8181 22.7411V21.8845H36.8567V22.7411L36.7896 22.7391L36.4447 22.8215L37.0579 24.4945L37.1327 24.5002H37.1403L37.2151 24.4945L37.8283 22.8215L37.4834 22.7391L37.4124 22.7411V21.8845H38.4511V22.7411L38.3821 22.7391L38.0391 22.8215L38.6504 24.4945L38.7251 24.5002H38.7309L38.8056 24.4945L39.4188 22.8215L39.0739 22.7391L39.0068 22.7411V21.8845H40.0474V22.7391H40.0378L39.6948 22.8215L40.3061 24.4945L40.3789 24.5002H40.3866L40.4613 24.4945L40.5897 24.1553L40.6051 22.743H40.6012V15.9821H40.8427C40.8968 16.1188 40.9878 16.2378 41.1055 16.3258C41.2233 16.4138 41.3632 16.4673 41.5096 16.4804V16.5513H41.2854C41.18 16.5513 41.0995 16.6184 41.0918 16.718V17.5516C41.0918 17.6455 41.1761 17.7183 41.2834 17.7183H41.5077V17.8257H41.2834C41.178 17.8257 41.0976 17.8908 41.0899 17.9924V18.826C41.0899 18.9199 41.1742 18.9927 41.2815 18.9927H41.5057V19.1096H41.2815C41.178 19.1096 41.0956 19.1767 41.088 19.2763V20.1099C41.088 20.2038 41.1723 20.2767 41.2796 20.2767H41.5038V20.3935H41.2796C41.1742 20.3935 41.0937 20.4587 41.0861 20.5584V21.392C41.0861 21.4859 41.1704 21.5587 41.2777 21.5587H41.5019V21.6756H41.2777C41.1742 21.6756 41.0918 21.7426 41.0841 21.8423V22.6759C41.0841 22.7698 41.1685 22.8426 41.2758 22.8426H41.5V22.9135C41.0937 22.9519 40.7756 23.2891 40.7756 23.705C40.7756 24.1457 41.134 24.5041 41.5747 24.5041C42.0155 24.5041 42.3738 24.1476 42.3738 23.705C42.3738 23.2891 42.0557 22.9538 41.6514 22.9135V22.8426H41.8737C41.981 22.8426 42.0653 22.7698 42.0653 22.6778L42.0672 21.8442C42.0672 21.7503 41.9829 21.6775 41.8756 21.6775H41.6514V21.5606H41.8737C41.981 21.5606 42.0653 21.4878 42.0653 21.3939L42.0672 20.5603C42.0672 20.4664 41.9848 20.3935 41.8756 20.3935H41.6514V20.2767H41.8737C41.981 20.2767 42.0653 20.2038 42.0653 20.1099L42.0672 19.2763C42.0672 19.1824 41.9829 19.1096 41.8756 19.1096H41.6514V18.9927H41.8737C41.981 18.9927 42.0653 18.9199 42.0653 18.826L42.0672 17.9924C42.0672 17.8985 41.9848 17.8276 41.8756 17.8276H41.6514V17.7203H41.8737C41.981 17.7203 42.0653 17.6474 42.0653 17.5535L42.0672 16.7199C42.0672 16.626 41.9848 16.5551 41.8756 16.5551H41.6514V16.4842C42.0557 16.4459 42.3738 16.1086 42.3738 15.6928C42.3738 15.252 42.0155 14.8937 41.5747 14.8937C41.226 14.8937 40.9328 15.1198 40.8235 15.4302H40.5916V12.7397H40.0072C40.0455 12.6477 40.0666 12.5423 40.0666 12.4331C40.0666 12.0498 39.8079 11.7394 39.4936 11.7394H37.307C37.2994 11.4213 37.0848 11.1664 36.8222 11.1664C36.6881 11.1664 36.5654 11.2316 36.4792 11.3389L35.8315 12.1265H36.4447L36.4466 12.1284H39.4955C39.6354 12.1284 39.7485 12.2664 39.7485 12.435C39.7485 12.6037 39.6354 12.7416 39.4955 12.7416H35.2834V12.0364L36.0001 11.1664H33.1754L33.8902 12.0326V13.3165L32.7404 12.207C32.8362 12.0977 32.8976 11.9425 32.8976 11.7681C32.8976 11.4366 32.6772 11.1664 32.4012 11.1664C32.2805 11.1664 32.1732 11.2162 32.087 11.3025V12.343L33.8385 14.0332L33.0126 14.3437C32.9474 14.1041 32.7615 13.9317 32.5411 13.9317C32.2671 13.9317 32.0448 14.2 32.0448 14.5334C32.0448 14.6714 32.085 14.7998 32.1502 14.8994H32.064V15.4283H31.8321C31.7229 15.1179 31.4297 14.8918 31.0809 14.8918C30.6401 14.8918 30.2837 15.2501 30.2837 15.6909C30.2837 16.1067 30.6018 16.444 31.0061 16.4823V16.5532H30.7819C30.6727 16.5532 30.5903 16.6241 30.5903 16.7199L30.5922 17.5535C30.5922 17.6474 30.6765 17.7203 30.7839 17.7203H31.0081V17.8276H30.7839C30.6765 17.8276 30.5922 17.9004 30.5922 17.9924L30.5941 18.826C30.5941 18.9199 30.6785 18.9927 30.7858 18.9927H31.0081V19.1096H30.7839C30.6765 19.1096 30.5922 19.1824 30.5922 19.2763L30.5941 20.1099C30.5941 20.2038 30.6785 20.2767 30.7858 20.2767H31.01V20.3935H30.7858C30.6765 20.3935 30.5941 20.4645 30.5941 20.5603L30.5961 21.3939C30.5961 21.4878 30.6804 21.5606 30.7877 21.5606H31.0119V21.6775H30.7877C30.6804 21.6775 30.5961 21.7503 30.5961 21.8442L30.598 22.6778C30.598 22.7698 30.6823 22.8426 30.7896 22.8426H31.0119V22.9135C30.6133 22.9538 30.2952 23.2891 30.2952 23.705ZM42.0519 23.705C42.0537 23.7671 42.043 23.829 42.0204 23.8869C41.9979 23.9449 41.9639 23.9977 41.9206 24.0423C41.8773 24.0869 41.8254 24.1223 41.7682 24.1465C41.7109 24.1707 41.6494 24.1832 41.5872 24.1832C41.525 24.1832 41.4635 24.1707 41.4062 24.1465C41.3489 24.1223 41.2971 24.0869 41.2538 24.0423C41.2104 23.9977 41.1765 23.9449 41.1539 23.8869C41.1314 23.829 41.1207 23.7671 41.1225 23.705C41.1225 23.475 41.2911 23.2834 41.5115 23.247V23.3409H41.661V23.247C41.8833 23.2834 42.0519 23.475 42.0519 23.705ZM41.8277 21.9285L41.8258 22.5916H41.6629V22.4632H41.5134V22.5916H41.3486V21.9285H41.5134V22.0588H41.6629V21.9285H41.8277ZM41.8277 20.6465V21.3096H41.6648V21.1812H41.5153V21.3096H41.3505V20.6465H41.5153V20.7749H41.6648V20.6446H41.8277V20.6465ZM41.8277 19.3645V20.0275H41.6648V19.8972H41.5153V20.0275H41.3505V19.3645H41.5153V19.4929H41.6648V19.3645H41.8277ZM41.8277 18.0824V18.7455H41.6648V18.6152H41.5153V18.7455H41.3505V18.0824H41.5153V18.2108H41.6648V18.0824H41.8277ZM41.8277 16.81V17.4711H41.6648V17.3332H41.5153V17.4711H41.3505V16.8081H41.5153V16.9384H41.6648V16.81H41.8277ZM41.5881 15.2309C41.8449 15.2309 42.0538 15.4398 42.0538 15.6966C42.0538 15.9285 41.8852 16.1182 41.6648 16.1527V16.0607H41.5153V16.1527C41.4065 16.135 41.3075 16.0793 41.2359 15.9954C41.1643 15.9115 41.1248 15.805 41.1244 15.6947C41.1241 15.6337 41.136 15.5733 41.1592 15.5169C41.1824 15.4605 41.2165 15.4093 41.2596 15.3662C41.3028 15.3231 41.354 15.2889 41.4104 15.2657C41.4667 15.2425 41.5272 15.2307 41.5881 15.2309ZM35.2642 21.1524H34.2256V20.2939H35.2642V21.1524ZM35.2642 19.5753H34.2256V18.7168H35.2642V19.5753ZM35.2642 17.9828H34.2256V17.1262H35.2642V17.9828ZM35.2642 16.3712H34.2256V15.5126H35.2642V16.3712ZM36.8586 21.1524H35.82V20.2939H36.8586V21.1524ZM36.8586 19.5753H35.82V18.7168H36.8586V19.5753ZM36.8586 17.9828H35.82V17.1262H36.8586V17.9828ZM36.8586 16.3712H35.82V15.5126H36.8586V16.3712ZM38.453 21.1524H37.4144V20.2939H38.453V21.1524ZM38.453 19.5753H37.4144V18.7168H38.453V19.5753ZM38.453 17.9828H37.4144V17.1262H38.453V17.9828ZM38.453 16.3712H37.4144V15.5126H38.453V16.3712ZM40.0493 21.1524H39.0088V20.2939H40.0493V21.1524ZM40.0493 19.5753H39.0088V18.7168H40.0493V19.5753ZM40.0493 17.9828H39.0088V17.1262H40.0493V17.9828ZM40.0493 15.9879V16.3712H39.0088V15.5126H40.0493V15.9879ZM38.4454 13.8186L38.1464 13.4775H40.1106V14.1463C40.0206 14.016 39.8845 13.9336 39.7331 13.9336C39.4591 13.9336 39.2368 14.2019 39.2368 14.5353C39.2368 14.6733 39.277 14.8017 39.3403 14.9013H37.2361L38.317 14.4951L38.8612 14.29L38.4454 13.8186ZM35.0937 12.2223L34.6012 12.8202L34.1087 12.2223H35.0937ZM37.6386 13.2399V14.1214L37.0407 14.3475C36.9755 14.108 36.7896 13.9355 36.5712 13.9355C36.2971 13.9355 36.0748 14.2038 36.0748 14.5372C36.0748 14.6752 36.1132 14.8036 36.1783 14.9033H33.2176L37.6386 13.2399ZM32.6312 15.9879V15.5146H33.6699V16.3731H32.6312V15.9879ZM32.6312 17.1262H33.6699V17.9828H32.6312V17.1262ZM32.6312 18.7187H33.6699V19.5772H32.6312V18.7187ZM32.6312 20.2939H33.6699V21.1524H32.6312V20.2939ZM31.0176 16.0588V16.1508C30.9093 16.1332 30.8107 16.0777 30.7395 15.9941C30.6682 15.9106 30.6289 15.8045 30.6286 15.6947C30.6286 15.5714 30.6776 15.4532 30.7647 15.3661C30.8519 15.2789 30.9701 15.23 31.0933 15.23C31.2166 15.23 31.3348 15.2789 31.4219 15.3661C31.5091 15.4532 31.5581 15.5714 31.5581 15.6947C31.5581 15.9266 31.3894 16.1163 31.1671 16.1527V16.0607H31.0176V16.0588ZM31.0176 17.3332V17.4711H30.8548V16.81H31.0196V16.9384H31.169V16.8081H31.3338V17.4711H31.169V17.3332H31.0176ZM31.0176 18.6152V18.7455H30.8548V18.0824H31.0196V18.2108H31.169V18.0824H31.3338V18.7455H31.169V18.6152H31.0176ZM31.0176 19.8972V20.0275H30.8548V19.3645H31.0196V19.4929H31.169V19.3645H31.3338V20.0275H31.169V19.8972H31.0176ZM31.0176 21.1812V21.3096H30.8548V20.6465H31.0196V20.7768H31.169V20.6484H31.3338V21.3115H31.169V21.1831H31.0176V21.1812ZM31.0176 22.4632V22.5916H30.8548L30.8528 21.9285H31.0176V22.0588H31.1671V21.9285H31.3319V22.5916H31.1671V22.4632H31.0176ZM31.0176 23.2489V23.3428H31.1671V23.2489C31.2758 23.2666 31.3746 23.3224 31.4458 23.4064C31.5171 23.4903 31.5562 23.5968 31.5561 23.7069C31.5562 23.7956 31.5309 23.8825 31.4832 23.9573C31.4355 24.0321 31.3673 24.0917 31.2868 24.129C31.2063 24.1663 31.1168 24.1797 31.0288 24.1677C30.9409 24.1557 30.8583 24.1188 30.7907 24.0613C30.7231 24.0038 30.6734 23.9282 30.6474 23.8433C30.6215 23.7585 30.6204 23.6679 30.6442 23.5825C30.6681 23.497 30.716 23.4202 30.7821 23.3611C30.8483 23.3019 30.93 23.263 31.0176 23.2489Z" fill="white"/>
<path d="M13.6385 27.6451C18.2531 27.6451 22.3272 25.3512 24.7954 21.8443C27.394 25.6904 31.6597 27.967 36.3298 27.967C44.0086 27.967 50.2539 21.7198 50.2539 14.0429C50.2539 6.36419 44.0067 0.116943 36.3298 0.116943C31.6981 0.116943 27.3901 2.44912 24.8203 6.20513C22.3559 2.67908 18.2665 0.369899 13.6366 0.369899C6.10544 0.369899 0 6.47534 0 14.0084C0 21.5396 6.10544 27.6451 13.6385 27.6451ZM25.1634 6.72254C27.6086 3.00869 31.8092 0.69376 36.3279 0.69376C43.6886 0.69376 49.6771 6.6823 49.6771 14.0449C49.6771 21.4055 43.6886 27.394 36.3279 27.394C31.7709 27.394 27.6182 25.1347 25.1404 21.3288C26.537 19.1429 27.2779 16.6025 27.2752 14.0084C27.2752 11.3275 26.4991 8.83051 25.1634 6.72254ZM18.3546 10.7909C19.0158 10.0742 19.9011 9.71586 21.0107 9.71586C22.1068 9.71586 22.9922 10.0742 23.6667 10.7909C24.3336 11.521 24.669 12.4696 24.669 13.6367C24.669 14.8037 24.3355 15.7485 23.6667 16.4709C22.9922 17.1953 22.1068 17.5575 21.0107 17.5575C19.9011 17.5575 19.0158 17.1953 18.3546 16.4709C17.6801 15.7542 17.3428 14.8095 17.3428 13.6367C17.3428 12.4715 17.6801 11.523 18.3546 10.7909ZM13.0464 9.88449H14.3438L17.316 17.3889H16.1259L15.3882 15.4399H12.0154L11.2872 17.3889H10.1182L13.0464 9.88449ZM3.08721 9.88449H4.38265L6.70142 13.5217C7.32614 14.5124 7.81481 15.3211 8.16549 15.9459C8.13675 15.1027 8.12334 13.8417 8.12334 12.163V9.88449H9.2099V17.3889H7.91445L5.60719 13.7536C4.93264 12.6996 4.44398 11.8947 4.14311 11.3409C4.17186 12.1764 4.18527 13.4355 4.18527 15.1142V17.3908H3.08913V9.88449H3.08721Z" fill="white"/>
<path d="M21.0106 16.5455C21.7695 16.5455 22.3731 16.2811 22.8235 15.756C23.2738 15.2424 23.498 14.5372 23.498 13.6365C23.498 12.7378 23.2738 12.0268 22.8235 11.5075C22.3674 10.9882 21.7618 10.7275 21.0106 10.7275C20.2594 10.7275 19.6539 10.9882 19.1978 11.5075C18.7417 12.0421 18.5117 12.7512 18.5117 13.6365C18.5117 14.5295 18.7398 15.2348 19.1978 15.756C19.6481 16.283 20.2518 16.5455 21.0106 16.5455ZM14.8592 14.0485C14.4874 13.121 14.0965 12.0958 13.6883 10.9709C13.2035 12.2644 12.8164 13.2897 12.5289 14.0485L12.3699 14.4606H15.0144L14.8592 14.0485Z" fill="white"/>
</g>
<defs>
<clipPath id="clip0_223_67">
<rect width="100" height="39.2561" fill="white"/>
</clipPath>
</defs>
</svg>
